<?xml version="1.0" encoding="UTF-8" standalone="no"?>
<svg
   xmlns:dc="http://purl.org/dc/elements/1.1/"
   xmlns:cc="http://creativecommons.org/ns#"
   xmlns:rdf="http://www.w3.org/1999/02/22-rdf-syntax-ns#"
   xmlns:svg="http://www.w3.org/2000/svg"
   xmlns="http://www.w3.org/2000/svg"
   xmlns:xlink="http://www.w3.org/1999/xlink"
   xmlns:sodipodi="http://sodipodi.sourceforge.net/DTD/sodipodi-0.dtd"
   xmlns:inkscape="http://www.inkscape.org/namespaces/inkscape"
   height="288pt"
   version="1.1"
   viewBox="0 0 432 288"
   width="432pt"
   id="svg305"
   sodipodi:docname="img001.svg"
   inkscape:version="1.0.2 (e86c870879, 2021-01-15)"
   inkscape:export-filename="/home/fafa/Documents/metode_numerik/slide/2021/00pengantar/img/img001.png"
   inkscape:export-xdpi="96"
   inkscape:export-ydpi="96">
  <sodipodi:namedview
     pagecolor="#ffffff"
     bordercolor="#666666"
     borderopacity="1"
     objecttolerance="10"
     gridtolerance="10"
     guidetolerance="10"
     inkscape:pageopacity="0"
     inkscape:pageshadow="2"
     inkscape:window-width="1366"
     inkscape:window-height="707"
     id="namedview307"
     showgrid="false"
     inkscape:zoom="1.9813722"
     inkscape:cx="329.88294"
     inkscape:cy="258.35838"
     inkscape:window-x="0"
     inkscape:window-y="0"
     inkscape:window-maximized="1"
     inkscape:current-layer="figure_1"
     inkscape:document-rotation="0" />
  <metadata
     id="metadata2">
    <rdf:RDF>
      <cc:Work>
        <dc:type
           rdf:resource="http://purl.org/dc/dcmitype/StillImage" />
        <dc:date>2021-08-19T05:16:11.829338</dc:date>
        <dc:format>image/svg+xml</dc:format>
        <dc:creator>
          <cc:Agent>
            <dc:title>Matplotlib v3.4.2, https://matplotlib.org/</dc:title>
          </cc:Agent>
        </dc:creator>
        <dc:title />
      </cc:Work>
    </rdf:RDF>
  </metadata>
  <defs
     id="defs6">
    <inkscape:path-effect
       effect="powerstroke"
       id="path-effect349"
       is_visible="true"
       lpeversion="1"
       offset_points="0,0.375"
       sort_points="true"
       interpolator_type="CubicBezierJohan"
       interpolator_beta="0.2"
       start_linecap_type="zerowidth"
       linejoin_type="extrp_arc"
       miter_limit="4"
       scale_width="1"
       end_linecap_type="zerowidth" />
    <style
       type="text/css"
       id="style4">*{stroke-linecap:butt;stroke-linejoin:round;}</style>
  </defs>
  <g
     id="figure_1">
    <g
       id="patch_1">
      <path
         d="M 0 288  L 432 288  L 432 0  L 0 0  z "
         style="fill:#ffffff;"
         id="path8" />
    </g>
    <g
       id="axes_1">
      <g
         id="patch_2">
        <path
           d="M 54 252  L 388.8 252  L 388.8 34.56  L 54 34.56  z "
           style="fill:#ffffff;"
           id="path11" />
      </g>
      <g
         id="matplotlib.axis_1">
        <g
           id="xtick_1">
          <g
             id="line2d_1">
            <defs
               id="defs15">
              <path
                 d="M 0 0  L 0 3.5  "
                 id="meb2a329c32"
                 style="stroke:#000000;stroke-width:0.8;" />
            </defs>
            <g
               id="g19">
              <use
                 style="stroke:#000000;stroke-width:0.8;"
                 x="103.036364"
                 xlink:href="#meb2a329c32"
                 y="252"
                 id="use17" />
            </g>
          </g>
          <g
             id="text_1">
            <!-- 3 -->
            <g
               transform="translate(99.855114 266.598437)scale(0.1 -0.1)"
               id="g27">
              <defs
                 id="defs23">
                <path
                   d="M 2597 2516  Q 3050 2419 3304 2112  Q 3559 1806 3559 1356  Q 3559 666 3084 287  Q 2609 -91 1734 -91  Q 1441 -91 1130 -33  Q 819 25 488 141  L 488 750  Q 750 597 1062 519  Q 1375 441 1716 441  Q 2309 441 2620 675  Q 2931 909 2931 1356  Q 2931 1769 2642 2001  Q 2353 2234 1838 2234  L 1294 2234  L 1294 2753  L 1863 2753  Q 2328 2753 2575 2939  Q 2822 3125 2822 3475  Q 2822 3834 2567 4026  Q 2313 4219 1838 4219  Q 1578 4219 1281 4162  Q 984 4106 628 3988  L 628 4550  Q 988 4650 1302 4700  Q 1616 4750 1894 4750  Q 2613 4750 3031 4423  Q 3450 4097 3450 3541  Q 3450 3153 3228 2886  Q 3006 2619 2597 2516  z "
                   id="DejaVuSans-33"
                   transform="scale(0.015625)" />
              </defs>
              <use
                 xlink:href="#DejaVuSans-33"
                 id="use25" />
            </g>
          </g>
        </g>
        <g
           id="xtick_4">
          <g
             id="line2d_4">
            <g
               id="g61">
              <use
                 style="stroke:#000000;stroke-width:0.8;"
                 x="305.945455"
                 xlink:href="#meb2a329c32"
                 y="252"
                 id="use59" />
            </g>
          </g>
          <g
             id="text_4">
            <!-- 6 -->
            <g
               transform="translate(302.764205 266.598437)scale(0.1 -0.1)"
               id="g69">
              <defs
                 id="defs65">
                <path
                   d="M 2113 2584  Q 1688 2584 1439 2293  Q 1191 2003 1191 1497  Q 1191 994 1439 701  Q 1688 409 2113 409  Q 2538 409 2786 701  Q 3034 994 3034 1497  Q 3034 2003 2786 2293  Q 2538 2584 2113 2584  z M 3366 4563  L 3366 3988  Q 3128 4100 2886 4159  Q 2644 4219 2406 4219  Q 1781 4219 1451 3797  Q 1122 3375 1075 2522  Q 1259 2794 1537 2939  Q 1816 3084 2150 3084  Q 2853 3084 3261 2657  Q 3669 2231 3669 1497  Q 3669 778 3244 343  Q 2819 -91 2113 -91  Q 1303 -91 875 529  Q 447 1150 447 2328  Q 447 3434 972 4092  Q 1497 4750 2381 4750  Q 2619 4750 2861 4703  Q 3103 4656 3366 4563  z "
                   id="DejaVuSans-36"
                   transform="scale(0.015625)" />
              </defs>
              <use
                 xlink:href="#DejaVuSans-36"
                 id="use67" />
            </g>
          </g>
        </g>
        <g
           id="text_6"
           transform="translate(-8.8339649,-53.266925)">
          <!-- sb-x -->
          <g
             transform="matrix(0.1,0,0,-0.1,367.71562,280.27656)"
             id="g101">
            <defs
               id="defs91">
              <path
                 d="m 2834,3397 v -544 q -243,125 -506,187 -262,63 -544,63 -428,0 -642,-131 -214,-131 -214,-394 0,-200 153,-314 153,-114 616,-217 l 197,-44 q 612,-131 870,-370 258,-239 258,-667 0,-488 -386,-773 Q 2250,-91 1575,-91 1294,-91 989,-36 684,19 347,128 v 594 q 319,-166 628,-249 309,-82 613,-82 406,0 624,139 219,139 219,392 0,234 -158,359 -157,125 -692,241 l -200,47 q -534,112 -772,345 -237,233 -237,639 0,494 350,762 350,269 994,269 318,0 599,-47 282,-46 519,-140 z"
                 id="DejaVuSans-73"
                 transform="scale(0.015625)" />
              <path
                 d="m 3116,1747 q 0,634 -261,995 -261,361 -717,361 -457,0 -718,-361 -261,-361 -261,-995 0,-634 261,-995 261,-361 718,-361 456,0 717,361 261,361 261,995 z M 1159,2969 q 182,312 458,463 277,152 661,152 638,0 1036,-506 399,-506 399,-1331 Q 3713,922 3314,415 2916,-91 2278,-91 1894,-91 1617,61 1341,213 1159,525 V 0 H 581 v 4863 h 578 z"
                 id="DejaVuSans-62"
                 transform="scale(0.015625)" />
              <path
                 d="M 313,2009 H 1997 V 1497 H 313 Z"
                 id="DejaVuSans-2d"
                 transform="scale(0.015625)" />
              <path
                 d="M 3513,3500 2247,1797 3578,0 H 2900 L 1881,1375 863,0 H 184 L 1544,1831 300,3500 h 678 l 928,-1247 928,1247 z"
                 id="DejaVuSans-78"
                 transform="scale(0.015625)" />
            </defs>
            <use
               xlink:href="#DejaVuSans-73"
               id="use93"
               x="0"
               y="0"
               width="100%"
               height="100%" />
            <use
               x="52.099609"
               xlink:href="#DejaVuSans-62"
               id="use95"
               y="0"
               width="100%"
               height="100%" />
            <use
               x="115.57617"
               xlink:href="#DejaVuSans-2d"
               id="use97"
               y="0"
               width="100%"
               height="100%" />
            <use
               x="151.66016"
               xlink:href="#DejaVuSans-78"
               id="use99"
               y="0"
               width="100%"
               height="100%" />
          </g>
        </g>
      </g>
      <g
         id="matplotlib.axis_2">
        <g
           id="ytick_1">
          <g
             id="line2d_6">
            <path
               clip-path="url(#pcb1851c59c)"
               d="M 54 229.761818  L 388.8 229.761818  "
               style="fill:none;stroke:#ff0000;stroke-linecap:square;stroke-width:0.3;"
               id="path105" />
          </g>
          <g
             id="line2d_7">
            <defs
               id="defs109">
              <path
                 d="M 0 0  L -3.5 0  "
                 id="m4581a6e690"
                 style="stroke:#000000;stroke-width:0.8;" />
            </defs>
            <g
               id="g113">
              <use
                 style="stroke:#000000;stroke-width:0.8;"
                 x="54"
                 xlink:href="#m4581a6e690"
                 y="229.761818"
                 id="use111" />
            </g>
          </g>
          <g
             id="text_7">
            <!-- 0 -->
            <g
               transform="translate(40.6375 233.561037)scale(0.1 -0.1)"
               id="g121">
              <defs
                 id="defs117">
                <path
                   d="M 2034 4250  Q 1547 4250 1301 3770  Q 1056 3291 1056 2328  Q 1056 1369 1301 889  Q 1547 409 2034 409  Q 2525 409 2770 889  Q 3016 1369 3016 2328  Q 3016 3291 2770 3770  Q 2525 4250 2034 4250  z M 2034 4750  Q 2819 4750 3233 4129  Q 3647 3509 3647 2328  Q 3647 1150 3233 529  Q 2819 -91 2034 -91  Q 1250 -91 836 529  Q 422 1150 422 2328  Q 422 3509 836 4129  Q 1250 4750 2034 4750  z "
                   id="DejaVuSans-30"
                   transform="scale(0.015625)" />
              </defs>
              <use
                 xlink:href="#DejaVuSans-30"
                 id="use119" />
            </g>
          </g>
        </g>
        <g
           id="ytick_2">
          <g
             id="line2d_9">
            <g
               id="g130">
              <use
                 style="stroke:#000000;stroke-width:0.8;"
                 x="54"
                 xlink:href="#m4581a6e690"
                 y="205.052727"
                 id="use128" />
            </g>
          </g>
          <g
             id="text_8">
            <!-- 2 -->
            <g
               transform="translate(40.6375 208.851946)scale(0.1 -0.1)"
               id="g138">
              <defs
                 id="defs134">
                <path
                   d="M 1228 531  L 3431 531  L 3431 0  L 469 0  L 469 531  Q 828 903 1448 1529  Q 2069 2156 2228 2338  Q 2531 2678 2651 2914  Q 2772 3150 2772 3378  Q 2772 3750 2511 3984  Q 2250 4219 1831 4219  Q 1534 4219 1204 4116  Q 875 4013 500 3803  L 500 4441  Q 881 4594 1212 4672  Q 1544 4750 1819 4750  Q 2544 4750 2975 4387  Q 3406 4025 3406 3419  Q 3406 3131 3298 2873  Q 3191 2616 2906 2266  Q 2828 2175 2409 1742  Q 1991 1309 1228 531  z "
                   id="DejaVuSans-32"
                   transform="scale(0.015625)" />
              </defs>
              <use
                 xlink:href="#DejaVuSans-32"
                 id="use136" />
            </g>
          </g>
        </g>
        <g
           id="ytick_3">
          <g
             id="line2d_11">
            <g
               id="g147">
              <use
                 style="stroke:#000000;stroke-width:0.8;"
                 x="54"
                 xlink:href="#m4581a6e690"
                 y="180.343636"
                 id="use145" />
            </g>
          </g>
          <g
             id="text_9">
            <!-- 4 -->
            <g
               transform="translate(40.6375 184.142855)scale(0.1 -0.1)"
               id="g152">
              <path
                 d="M 37.796875,64.3125 12.890625,25.390625 h 24.90625 z m -2.59375,8.59375 h 12.40625 V 25.390625 h 10.40625 V 17.1875 H 47.609375 V 0 h -9.8125 V 17.1875 H 4.890625 v 9.515625 z"
                 id="use150"
                 style="stroke-width:0.015625" />
            </g>
          </g>
        </g>
        <g
           id="ytick_4">
          <g
             id="line2d_13">
            <g
               id="g161">
              <use
                 style="stroke:#000000;stroke-width:0.8;"
                 x="54"
                 xlink:href="#m4581a6e690"
                 y="155.634545"
                 id="use159" />
            </g>
          </g>
          <g
             id="text_10">
            <!-- 6 -->
            <g
               transform="translate(40.6375 159.433764)scale(0.1 -0.1)"
               id="g166">
              <use
                 xlink:href="#DejaVuSans-36"
                 id="use164" />
            </g>
          </g>
        </g>
        <g
           id="ytick_5">
          <g
             id="line2d_15">
            <g
               id="g175">
              <use
                 style="stroke:#000000;stroke-width:0.8;"
                 x="54"
                 xlink:href="#m4581a6e690"
                 y="130.925455"
                 id="use173" />
            </g>
          </g>
          <g
             id="text_11">
            <!-- 8 -->
            <g
               transform="translate(40.6375 134.724673)scale(0.1 -0.1)"
               id="g183">
              <defs
                 id="defs179">
                <path
                   d="M 2034 2216  Q 1584 2216 1326 1975  Q 1069 1734 1069 1313  Q 1069 891 1326 650  Q 1584 409 2034 409  Q 2484 409 2743 651  Q 3003 894 3003 1313  Q 3003 1734 2745 1975  Q 2488 2216 2034 2216  z M 1403 2484  Q 997 2584 770 2862  Q 544 3141 544 3541  Q 544 4100 942 4425  Q 1341 4750 2034 4750  Q 2731 4750 3128 4425  Q 3525 4100 3525 3541  Q 3525 3141 3298 2862  Q 3072 2584 2669 2484  Q 3125 2378 3379 2068  Q 3634 1759 3634 1313  Q 3634 634 3220 271  Q 2806 -91 2034 -91  Q 1263 -91 848 271  Q 434 634 434 1313  Q 434 1759 690 2068  Q 947 2378 1403 2484  z M 1172 3481  Q 1172 3119 1398 2916  Q 1625 2713 2034 2713  Q 2441 2713 2670 2916  Q 2900 3119 2900 3481  Q 2900 3844 2670 4047  Q 2441 4250 2034 4250  Q 1625 4250 1398 4047  Q 1172 3844 1172 3481  z "
                   id="DejaVuSans-38"
                   transform="scale(0.015625)" />
              </defs>
              <use
                 xlink:href="#DejaVuSans-38"
                 id="use181" />
            </g>
          </g>
        </g>
        <g
           id="ytick_6">
          <g
             id="line2d_17">
            <g
               id="g192">
              <use
                 style="stroke:#000000;stroke-width:0.8;"
                 x="54"
                 xlink:href="#m4581a6e690"
                 y="106.216364"
                 id="use190" />
            </g>
          </g>
          <g
             id="text_12">
            <!-- 10 -->
            <g
               transform="translate(34.275 110.015582)scale(0.1 -0.1)"
               id="g202">
              <defs
                 id="defs196">
                <path
                   d="M 794 531  L 1825 531  L 1825 4091  L 703 3866  L 703 4441  L 1819 4666  L 2450 4666  L 2450 531  L 3481 531  L 3481 0  L 794 0  L 794 531  z "
                   id="DejaVuSans-31"
                   transform="scale(0.015625)" />
              </defs>
              <use
                 xlink:href="#DejaVuSans-31"
                 id="use198" />
              <use
                 x="63.623047"
                 xlink:href="#DejaVuSans-30"
                 id="use200" />
            </g>
          </g>
        </g>
        <g
           id="ytick_7">
          <g
             id="line2d_19">
            <g
               id="g211">
              <use
                 style="stroke:#000000;stroke-width:0.8;"
                 x="54"
                 xlink:href="#m4581a6e690"
                 y="81.507273"
                 id="use209" />
            </g>
          </g>
          <g
             id="text_13">
            <!-- 12 -->
            <g
               transform="translate(34.275 85.306491)scale(0.1 -0.1)"
               id="g218">
              <use
                 xlink:href="#DejaVuSans-31"
                 id="use214" />
              <use
                 x="63.623047"
                 xlink:href="#DejaVuSans-32"
                 id="use216" />
            </g>
          </g>
        </g>
        <g
           id="ytick_8">
          <g
             id="line2d_21">
            <g
               id="g227">
              <use
                 style="stroke:#000000;stroke-width:0.8;"
                 x="54"
                 xlink:href="#m4581a6e690"
                 y="56.798182"
                 id="use225" />
            </g>
          </g>
          <g
             id="text_14">
            <!-- 14 -->
            <g
               transform="translate(34.275 60.597401)scale(0.1 -0.1)"
               id="g234">
              <use
                 xlink:href="#DejaVuSans-31"
                 id="use230" />
              <path
                 d="M 101.41992,64.3125 76.513672,25.390625 h 24.906248 z m -2.593748,8.59375 H 111.23242 V 25.390625 h 10.40625 V 17.1875 H 111.23242 V 0 h -9.8125 V 17.1875 H 68.513672 v 9.515625 z"
                 id="use232"
                 style="stroke-width:0.015625" />
            </g>
          </g>
        </g>
      </g>
      <g
         id="line2d_22">
        <path
           clip-path="url(#pcb1851c59c)"
           d="M 69.218182 239.027727  L 72.292562 239.563772  L 75.366942 240.048764  L 78.441322 240.482705  L 81.515702 240.865594  L 84.590083 241.197431  L 87.664463 241.478216  L 90.738843 241.707949  L 93.813223 241.88663  L 96.887603 242.01426  L 99.961983 242.090838  L 103.036364 242.116364  L 106.110744 242.090838  L 109.185124 242.01426  L 112.259504 241.88663  L 115.333884 241.707949  L 118.408264 241.478216  L 121.482645 241.197431  L 124.557025 240.865594  L 127.631405 240.482705  L 130.705785 240.048764  L 133.780165 239.563772  L 136.854545 239.027727  L 139.928926 238.440631  L 143.003306 237.802483  L 146.077686 237.113283  L 149.152066 236.373032  L 152.226446 235.581728  L 155.300826 234.739373  L 158.375207 233.845965  L 161.449587 232.901506  L 164.523967 231.905995  L 167.598347 230.859433  L 170.672727 229.761818  L 173.747107 228.613152  L 176.821488 227.413434  L 179.895868 226.162663  L 182.970248 224.860841  L 186.044628 223.507968  L 189.119008 222.104042  L 192.193388 220.649065  L 195.267769 219.143035  L 198.342149 217.585954  L 201.416529 215.977821  L 204.490909 214.318636  L 207.565289 212.6084  L 210.639669 210.847111  L 213.71405 209.034771  L 216.78843 207.171379  L 219.86281 205.256935  L 222.93719 203.291439  L 226.01157 201.274891  L 229.08595 199.207292  L 232.160331 197.08864  L 235.234711 194.918937  L 238.309091 192.698182  L 241.383471 190.426375  L 244.457851 188.103516  L 247.532231 185.729606  L 250.606612 183.304643  L 253.680992 180.828629  L 256.755372 178.301563  L 259.829752 175.723445  L 262.904132 173.094275  L 265.978512 170.414053  L 269.052893 167.68278  L 272.127273 164.900455  L 275.201653 162.067077  L 278.276033 159.182648  L 281.350413 156.247168  L 284.424793 153.260635  L 287.499174 150.22305  L 290.573554 147.134414  L 293.647934 143.994726  L 296.722314 140.803986  L 299.796694 137.562194  L 302.871074 134.26935  L 305.945455 130.925455  L 309.019835 127.530507  L 312.094215 124.084508  L 315.168595 120.587457  L 318.242975 117.039354  L 321.317355 113.440199  L 324.391736 109.789992  L 327.466116 106.088734  L 330.540496 102.336424  L 333.614876 98.533062  L 336.689256 94.678648  L 339.763636 90.773182  L 342.838017 86.816664  L 345.912397 82.809095  L 348.986777 78.750473  L 352.061157 74.6408  L 355.135537 70.480075  L 358.209917 66.268298  L 361.284298 62.00547  L 364.358678 57.691589  L 367.433058 53.326657  L 370.507438 48.910672  L 373.581818 44.443636  "
           style="fill:none;stroke:#1f77b4;stroke-linecap:square;stroke-width:1.5;"
           id="path239" />
      </g>
      <g
         id="patch_3">
        <path
           d="M 54 252  L 54 34.56  "
           style="fill:none;stroke:#000000;stroke-linecap:square;stroke-linejoin:miter;stroke-width:0.8;"
           id="path242" />
      </g>
      <g
         id="patch_4">
        <path
           d="M 388.8 252  L 388.8 34.56  "
           style="fill:none;stroke:#000000;stroke-linecap:square;stroke-linejoin:miter;stroke-width:0.8;"
           id="path245" />
      </g>
      <g
         id="patch_5">
        <path
           d="M 54 252  L 388.8 252  "
           style="fill:none;stroke:#000000;stroke-linecap:square;stroke-linejoin:miter;stroke-width:0.8;"
           id="path248" />
      </g>
      <g
         id="patch_6">
        <path
           d="M 54 34.56  L 388.8 34.56  "
           style="fill:none;stroke:#000000;stroke-linecap:square;stroke-linejoin:miter;stroke-width:0.8;"
           id="path251" />
      </g>
      <g
         id="legend_1"
         transform="translate(72.304579,49.43485)">
        <g
           id="line2d_24" />
        <g
           id="text_15"
           transform="translate(97.370266,-38.530678)">
          <!-- $f(x) = x^2 - 6x + 8$ -->
          <g
             transform="matrix(0.1,0,0,-0.1,91,51.980312)"
             id="g294">
            <defs
               id="defs268">
              <path
                 d="m 3059,4863 -90,-479 h -550 q -313,0 -455,-123 -142,-123 -211,-452 l -62,-309 h 947 l -85,-447 H 1606 L 1013,0 H 434 l 597,3053 H 481 l 82,447 h 550 l 46,244 q 119,619 417,869 299,250 940,250 z"
                 id="DejaVuSans-Oblique-66"
                 transform="scale(0.015625)" />
              <path
                 d="m 1984,4856 q -418,-718 -622,-1422 -203,-703 -203,-1425 0,-721 205,-1429 205,-708 620,-1424 h -500 q -468,735 -701,1444 -233,709 -233,1409 0,697 231,1403 232,707 703,1444 z"
                 id="DejaVuSans-28"
                 transform="scale(0.015625)" />
              <path
                 d="M 3841,3500 2234,1784 3219,0 H 2559 L 1819,1388 531,0 H -166 L 1556,1844 641,3500 h 659 l 672,-1266 1172,1266 z"
                 id="DejaVuSans-Oblique-78"
                 transform="scale(0.015625)" />
              <path
                 d="m 513,4856 h 500 q 468,-737 701,-1444 233,-706 233,-1403 0,-700 -233,-1409 -233,-709 -701,-1444 H 513 q 415,716 620,1424 205,708 205,1429 0,722 -205,1425 -205,704 -620,1422 z"
                 id="DejaVuSans-29"
                 transform="scale(0.015625)" />
              <path
                 d="M 678,2906 H 4684 V 2381 H 678 Z m 0,-1275 H 4684 V 1100 H 678 Z"
                 id="DejaVuSans-3d"
                 transform="scale(0.015625)" />
              <path
                 d="M 678,2272 H 4684 V 1741 H 678 Z"
                 id="DejaVuSans-2212"
                 transform="scale(0.015625)" />
              <path
                 d="M 2944,4013 V 2272 H 4684 V 1741 H 2944 V 0 H 2419 V 1741 H 678 v 531 h 1741 v 1741 z"
                 id="DejaVuSans-2b"
                 transform="scale(0.015625)" />
            </defs>
            <use
               transform="translate(0,0.765625)"
               xlink:href="#DejaVuSans-Oblique-66"
               id="use270"
               x="0"
               y="0"
               width="100%"
               height="100%" />
            <use
               transform="translate(35.205078,0.765625)"
               xlink:href="#DejaVuSans-28"
               id="use272"
               x="0"
               y="0"
               width="100%"
               height="100%" />
            <use
               transform="translate(74.21875,0.765625)"
               xlink:href="#DejaVuSans-Oblique-78"
               id="use274"
               x="0"
               y="0"
               width="100%"
               height="100%" />
            <use
               transform="translate(133.39844,0.765625)"
               xlink:href="#DejaVuSans-29"
               id="use276"
               x="0"
               y="0"
               width="100%"
               height="100%" />
            <use
               transform="translate(191.89453,0.765625)"
               xlink:href="#DejaVuSans-3d"
               id="use278"
               x="0"
               y="0"
               width="100%"
               height="100%" />
            <use
               transform="translate(295.16602,0.765625)"
               xlink:href="#DejaVuSans-Oblique-78"
               id="use280"
               x="0"
               y="0"
               width="100%"
               height="100%" />
            <use
               transform="matrix(0.7,0,0,0.7,358.81185,39.046875)"
               xlink:href="#DejaVuSans-32"
               id="use282"
               x="0"
               y="0"
               width="100%"
               height="100%" />
            <use
               transform="translate(425.56478,0.765625)"
               xlink:href="#DejaVuSans-2212"
               id="use284"
               x="0"
               y="0"
               width="100%"
               height="100%" />
            <use
               transform="translate(528.83626,0.765625)"
               xlink:href="#DejaVuSans-36"
               id="use286"
               x="0"
               y="0"
               width="100%"
               height="100%" />
            <use
               transform="translate(592.45931,0.765625)"
               xlink:href="#DejaVuSans-Oblique-78"
               id="use288"
               x="0"
               y="0"
               width="100%"
               height="100%" />
            <use
               transform="translate(671.12142,0.765625)"
               xlink:href="#DejaVuSans-2b"
               id="use290"
               x="0"
               y="0"
               width="100%"
               height="100%" />
            <use
               transform="translate(774.3929,0.765625)"
               xlink:href="#DejaVuSans-38"
               id="use292"
               x="0"
               y="0"
               width="100%"
               height="100%" />
          </g>
        </g>
      </g>
    </g>
    <path
       style="fill:#ff0000;stroke-width:0.75"
       id="path387"
       d="m 301.00063,69.333264 c 0.47549,2.780131 2.62501,5.258665 4.74906,6.994716 0.80879,0.661043 1.69299,1.224022 2.53947,1.836037 5.25715,3.410483 11.0656,5.804025 16.98481,7.7877 1.66598,0.502073 3.3317,1.055093 5.05362,1.337468 0.25324,0.0459 0.47359,0.197505 0.70569,0.305595 0.6438,0.295815 1.30879,0.497115 2.00672,0.61035 0.67965,0.07519 1.36125,0.127492 2.0405,0.20676 0.4473,0.08777 0.7232,0.0609 1.13485,-0.141338 0.5768,-0.490335 -0.11664,-1.306057 -0.69344,-0.815722 v 0 c 0.55413,-0.150615 -0.15378,-0.01935 -0.31732,-0.10635 -0.66441,-0.07752 -1.33086,-0.131025 -1.99608,-0.200633 -0.60132,-0.09378 -1.17009,-0.2712 -1.72495,-0.524407 -0.32122,-0.148065 -0.62486,-0.347228 -0.98365,-0.39093 -1.66541,-0.26988 -3.274,-0.815985 -4.88585,-1.29597 -5.81773,-1.948238 -11.52762,-4.297013 -16.69893,-7.641098 -0.80969,-0.58155 -1.65491,-1.116592 -2.42907,-1.74465 -1.93007,-1.565806 -3.87164,-3.729354 -4.4148,-6.217528 0,-0.757051 -1.07063,-0.757051 -1.07063,0 z" />
    <path
       style="fill:#ff0000;stroke-width:0.75"
       id="path389"
       d="m 332.25076,82.594568 c 0.30171,1.71651 0.92976,3.34926 1.63433,4.935375 0.008,0.0097 0.69517,1.601024 0.5455,1.11525 0.0307,-0.106996 0.12029,-0.213316 0.0921,-0.320993 -0.002,-0.006 -0.11937,0.05842 -0.53301,0.259283 -0.63703,0.309285 -1.27846,0.608437 -1.9217,0.904537 -0.82481,0.191573 -1.67982,1.01148 -2.51418,1.125308 -0.73736,0.171532 -0.49478,1.214325 0.24258,1.042792 v 0 c 0.95605,-0.253928 1.7931,-0.857347 2.71931,-1.195575 0.44183,-0.203415 2.39456,-0.991867 2.68577,-1.308375 0.12985,-0.141135 0.19977,-0.327442 0.29967,-0.491167 -0.0774,-0.567885 -0.42558,-1.038225 -0.63768,-1.565925 -0.65558,-1.473953 -1.24011,-2.988443 -1.5449,-4.57863 -0.0552,-0.755033 -1.12301,-0.676913 -1.06777,0.07812 z" />
    <path
       style="fill:#ff0000;stroke-width:0.75"
       id="path391"
       d="m 170.85484,206.13111 c -0.48743,2.96269 -0.75708,5.95639 -1.0463,8.9434 -0.26305,2.6017 -0.41194,5.21253 -0.57009,7.82208 -0.035,0.61784 -0.0748,1.23558 -0.0951,1.85415 -0.008,0.1507 0.008,0.30099 0.0229,0.45079 0.0318,0.38891 0.11287,0.72322 0.36011,1.02665 0.30624,-0.1217 0.61248,-0.24339 0.91872,-0.36508 0.27425,-0.70564 -0.72366,-1.09348 -0.99791,-0.38785 v 0 c 0.26467,-0.0147 0.52934,-0.0294 0.794,-0.0441 0.22717,0.34447 -0.0563,-0.19357 -0.009,-0.3344 -0.0121,-0.11925 -0.0234,-0.21295 -0.0183,-0.31103 0.0198,-0.60862 0.0595,-1.21642 0.0937,-1.82433 0.15736,-2.59674 0.30529,-5.19475 0.56706,-7.78368 0.28574,-2.95138 0.55237,-5.90921 1.03059,-8.83707 0.14814,-0.74242 -0.9018,-0.95192 -1.04994,-0.2095 z" />
    <path
       style="fill:#ff0000;stroke-width:0.75"
       id="path393"
       d="m 165.57241,219.94633 c 0.82557,1.32298 1.60391,2.67611 2.48709,3.9621 0.60203,0.84078 0.97005,1.46439 1.99254,0.57216 1.51851,-1.54841 3.00785,-3.1243 4.46886,-4.72699 0.93297,-1.03081 1.84908,-2.07718 2.73219,-3.15107 0.48084,-0.58474 -0.34609,-1.26476 -0.82694,-0.68003 v 0 c -0.87155,1.05985 -1.77575,2.09249 -2.69648,3.10984 -1.44116,1.58105 -2.91081,3.13502 -4.40682,4.66432 -0.0538,0.0571 -0.19363,0.0999 -0.16123,0.17128 0.0373,0.0822 0.18244,0.0199 0.26478,0.0568 0.0412,0.0185 0.12063,0.13418 0.0889,0.1021 -0.21701,-0.21939 -0.38748,-0.48086 -0.57355,-0.72501 -0.8704,-1.26461 -1.63288,-2.59852 -2.44705,-3.89928 -0.38447,-0.65216 -1.30676,-0.10844 -0.92229,0.54372 z" />
    <text
       xml:space="preserve"
       style="font-style:normal;font-weight:normal;font-size:14px;line-height:1.25;font-family:sans-serif;fill:#000000;fill-opacity:1;stroke:none;stroke-width:0.75"
       x="130.5383"
       y="201.23703"
       id="text397"><tspan
         sodipodi:role="line"
         id="tspan395"
         x="130.5383"
         y="201.23703"
         style="font-size:14px;stroke-width:0.75">salah satu akar</tspan></text>
  </g>
  <defs
     id="defs303">
    <clipPath
       id="pcb1851c59c">
      <rect
         height="217.44"
         width="334.8"
         x="54"
         y="34.56"
         id="rect300" />
    </clipPath>
  </defs>
</svg>
