<?xml version="1.0" encoding="UTF-8" standalone="no"?>
<svg
   height="288pt"
   version="1.1"
   viewBox="0 0 432 288"
   width="432pt"
   id="svg436"
   sodipodi:docname="img003.svg"
   inkscape:version="1.1 (c68e22c387, 2021-05-23)"
   inkscape:export-filename="/home/fafa/Documents/metode_numerik/slide/2021/00pengantar/img/img003.png"
   inkscape:export-xdpi="96"
   inkscape:export-ydpi="96"
   xmlns:inkscape="http://www.inkscape.org/namespaces/inkscape"
   xmlns:sodipodi="http://sodipodi.sourceforge.net/DTD/sodipodi-0.dtd"
   xmlns:xlink="http://www.w3.org/1999/xlink"
   xmlns="http://www.w3.org/2000/svg"
   xmlns:svg="http://www.w3.org/2000/svg"
   xmlns:rdf="http://www.w3.org/1999/02/22-rdf-syntax-ns#"
   xmlns:cc="http://creativecommons.org/ns#"
   xmlns:dc="http://purl.org/dc/elements/1.1/">
  <sodipodi:namedview
     id="namedview438"
     pagecolor="#ffffff"
     bordercolor="#666666"
     borderopacity="1.0"
     inkscape:pageshadow="2"
     inkscape:pageopacity="0.0"
     inkscape:pagecheckerboard="0"
     inkscape:document-units="pt"
     showgrid="false"
     inkscape:zoom="1.3802083"
     inkscape:cx="253.22265"
     inkscape:cy="174.97359"
     inkscape:window-width="1366"
     inkscape:window-height="707"
     inkscape:window-x="0"
     inkscape:window-y="0"
     inkscape:window-maximized="1"
     inkscape:current-layer="axes_1" />
  <metadata
     id="metadata2">
    <rdf:RDF>
      <cc:Work>
        <dc:type
           rdf:resource="http://purl.org/dc/dcmitype/StillImage" />
        <dc:date>2021-08-21T17:03:08.199110</dc:date>
        <dc:format>image/svg+xml</dc:format>
        <dc:creator>
          <cc:Agent>
            <dc:title>Matplotlib v3.4.2, https://matplotlib.org/</dc:title>
          </cc:Agent>
        </dc:creator>
      </cc:Work>
    </rdf:RDF>
  </metadata>
  <defs
     id="defs6">
    <style
       type="text/css"
       id="style4">*{stroke-linecap:butt;stroke-linejoin:round;}</style>
    <clipPath
       id="p71d90ec804-3">
      <rect
         height="217.44"
         width="334.79999"
         x="54"
         y="34.560001"
         id="rect431-6" />
    </clipPath>
    <clipPath
       id="p71d90ec804-3-5">
      <rect
         height="217.44"
         width="334.79999"
         x="54"
         y="34.560001"
         id="rect431-6-3" />
    </clipPath>
    <clipPath
       id="p71d90ec804-3-6">
      <rect
         height="217.44"
         width="334.79999"
         x="54"
         y="34.560001"
         id="rect431-6-2" />
    </clipPath>
    <clipPath
       id="p71d90ec804-3-1">
      <rect
         height="217.44"
         width="334.79999"
         x="54"
         y="34.560001"
         id="rect431-6-27" />
    </clipPath>
  </defs>
  <g
     id="patch_1">
    <path
       d="M 0,288 H 432 V 0 H 0 Z"
       style="fill:#ffffff"
       id="path8" />
  </g>
  <g
     id="axes_1">
    <g
       id="patch_2"
       transform="translate(-1.2207031e-5)">
      <path
         d="M 54,252 H 388.8 V 34.56 H 54 Z"
         style="fill:#ffffff"
         id="path11" />
    </g>
    <g
       id="xtick_1">
      <g
         id="line2d_1" />
      <g
         id="line2d_2">
        <defs
           id="defs18">
          <path
             d="M 0,0 V 3.5"
             id="m9e0cbd86d6"
             style="stroke:#000000;stroke-width:0.8" />
        </defs>
        <g
           id="g22">
          <use
             style="stroke:#000000;stroke-width:0.8"
             x="69.218185"
             xlink:href="#m9e0cbd86d6"
             y="252"
             id="use20"
             width="100%"
             height="100%" />
        </g>
      </g>
      <g
         id="text_1">
        <!-- −2.0 -->
        <g
           transform="matrix(0.1,0,0,-0.1,57.076776,266.59844)"
           id="g39">
          <defs
             id="defs29">
            <path
               d="M 678,2272 H 4684 V 1741 H 678 Z"
               id="DejaVuSans-2212"
               transform="scale(0.015625)" />
            <path
               d="M 1228,531 H 3431 V 0 H 469 v 531 q 359,372 979,998 621,627 780,809 303,340 423,576 121,236 121,464 0,372 -261,606 -261,235 -680,235 -297,0 -627,-103 -329,-103 -704,-313 v 638 q 381,153 712,231 332,78 607,78 725,0 1156,-363 431,-362 431,-968 0,-288 -108,-546 -107,-257 -392,-607 -78,-91 -497,-524 Q 1991,1309 1228,531 Z"
               id="DejaVuSans-32"
               transform="scale(0.015625)" />
            <path
               d="m 684,794 h 660 V 0 H 684 Z"
               id="DejaVuSans-2e"
               transform="scale(0.015625)" />
            <path
               d="m 2034,4250 q -487,0 -733,-480 -245,-479 -245,-1442 0,-959 245,-1439 246,-480 733,-480 491,0 736,480 246,480 246,1439 0,963 -246,1442 -245,480 -736,480 z m 0,500 q 785,0 1199,-621 414,-620 414,-1801 0,-1178 -414,-1799 -414,-620 -1199,-620 -784,0 -1198,620 -414,621 -414,1799 0,1181 414,1801 414,621 1198,621 z"
               id="DejaVuSans-30"
               transform="scale(0.015625)" />
          </defs>
          <use
             xlink:href="#DejaVuSans-2212"
             id="use31"
             x="0"
             y="0"
             width="100%"
             height="100%" />
          <use
             x="83.789062"
             xlink:href="#DejaVuSans-32"
             id="use33"
             y="0"
             width="100%"
             height="100%" />
          <use
             x="147.41211"
             xlink:href="#DejaVuSans-2e"
             id="use35"
             y="0"
             width="100%"
             height="100%" />
          <use
             x="179.19922"
             xlink:href="#DejaVuSans-30"
             id="use37"
             y="0"
             width="100%"
             height="100%" />
        </g>
      </g>
    </g>
    <g
       id="xtick_2">
      <g
         id="line2d_3" />
      <g
         id="line2d_4">
        <g
           id="g48">
          <use
             style="stroke:#000000;stroke-width:0.8"
             x="107.26363"
             xlink:href="#m9e0cbd86d6"
             y="252"
             id="use46"
             width="100%"
             height="100%" />
        </g>
      </g>
      <g
         id="text_2">
        <!-- −1.5 -->
        <g
           transform="matrix(0.1,0,0,-0.1,95.12223,266.59844)"
           id="g63">
          <defs
             id="defs53">
            <path
               d="M 794,531 H 1825 V 4091 L 703,3866 v 575 l 1116,225 h 631 V 531 H 3481 V 0 H 794 Z"
               id="DejaVuSans-31"
               transform="scale(0.015625)" />
            <path
               d="M 691,4666 H 3169 V 4134 H 1269 V 2991 q 137,47 274,70 138,23 276,23 781,0 1237,-428 457,-428 457,-1159 Q 3513,744 3044,326 2575,-91 1722,-91 1428,-91 1123,-41 819,9 494,109 v 635 q 281,-153 581,-228 300,-75 634,-75 541,0 856,284 316,284 316,772 0,487 -316,771 -315,285 -856,285 -253,0 -505,-56 -251,-56 -513,-175 z"
               id="DejaVuSans-35"
               transform="scale(0.015625)" />
          </defs>
          <use
             xlink:href="#DejaVuSans-2212"
             id="use55"
             x="0"
             y="0"
             width="100%"
             height="100%" />
          <use
             x="83.789062"
             xlink:href="#DejaVuSans-31"
             id="use57"
             y="0"
             width="100%"
             height="100%" />
          <use
             x="147.41211"
             xlink:href="#DejaVuSans-2e"
             id="use59"
             y="0"
             width="100%"
             height="100%" />
          <use
             x="179.19922"
             xlink:href="#DejaVuSans-35"
             id="use61"
             y="0"
             width="100%"
             height="100%" />
        </g>
      </g>
    </g>
    <g
       id="line2d_5"
       style="fill:#000000;fill-opacity:1;stroke:#000000;stroke-opacity:1">
      <path
         clip-path="url(#p71d90ec804)"
         d="m 145.30909,242.37409 0,-148.404068"
         style="fill:#000000;fill-opacity:1;stroke:#000000;stroke-width:0.8;stroke-linecap:square;stroke-opacity:1"
         id="path67"
         sodipodi:nodetypes="cc" />
    </g>
    <g
       id="line2d_6">
      <g
         id="g72">
        <use
           style="stroke:#000000;stroke-width:0.8"
           x="145.3091"
           xlink:href="#m9e0cbd86d6"
           y="252"
           id="use70"
           width="100%"
           height="100%" />
      </g>
    </g>
    <g
       id="text_3">
      <!-- −1.0 -->
      <g
         transform="matrix(0.1,0,0,-0.1,133.16768,266.59844)"
         id="g83">
        <use
           xlink:href="#DejaVuSans-2212"
           id="use75"
           x="0"
           y="0"
           width="100%"
           height="100%" />
        <use
           x="83.789062"
           xlink:href="#DejaVuSans-31"
           id="use77"
           y="0"
           width="100%"
           height="100%" />
        <use
           x="147.41211"
           xlink:href="#DejaVuSans-2e"
           id="use79"
           y="0"
           width="100%"
           height="100%" />
        <use
           x="179.19922"
           xlink:href="#DejaVuSans-30"
           id="use81"
           y="0"
           width="100%"
           height="100%" />
      </g>
    </g>
    <path
       clip-path="url(#p71d90ec804)"
       d="m 183.35454,241.7597 0,-184.443001"
       style="fill:none;stroke:#000001;stroke-width:0.8;stroke-linecap:square;stroke-opacity:1"
       id="path87"
       sodipodi:nodetypes="cc" />
    <path
       clip-path="url(#p71d90ec804-3)"
       d="m 196.07934,164.66227 -36.53326,-37.6037"
       style="fill:none;stroke:#000003;stroke-width:0.8;stroke-linecap:square;stroke-linejoin:round;stroke-opacity:1"
       id="path87-7"
       transform="rotate(90,206.51727,104.12877)"
       sodipodi:nodetypes="cc" />
    <path
       clip-path="url(#p71d90ec804-3-5)"
       d="M 196.52256,164.85528 158.39737,127.95591"
       style="fill:none;stroke:#000000;stroke-width:0.8;stroke-linecap:square;stroke-linejoin:round;stroke-opacity:1"
       id="path87-7-5"
       transform="rotate(180,227.99113,110.8867)"
       sodipodi:nodetypes="cc" />
    <path
       clip-path="url(#p71d90ec804-3-6)"
       d="M 170.03444,180.98993 157.30938,143.01105"
       style="fill:none;stroke:#000004;stroke-width:0.8;stroke-linecap:square;stroke-linejoin:round;stroke-opacity:1"
       id="path87-7-9"
       transform="rotate(90,238.72713,125.85027)"
       sodipodi:nodetypes="cc" />
    <path
       clip-path="url(#p71d90ec804-3-1)"
       d="M 166.5346,129.29884 154.049,167.19219"
       style="fill:none;stroke:#000000;stroke-width:0.8;stroke-linecap:square;stroke-linejoin:round;stroke-opacity:1"
       id="path87-7-0"
       transform="rotate(90,249.18751,139.57103)"
       sodipodi:nodetypes="cc" />
    <g
       id="line2d_8">
      <g
         id="g92">
        <use
           style="stroke:#000000;stroke-width:0.8"
           x="183.35454"
           xlink:href="#m9e0cbd86d6"
           y="252"
           id="use90"
           width="100%"
           height="100%" />
      </g>
    </g>
    <g
       id="text_4">
      <!-- −0.5 -->
      <g
         transform="matrix(0.1,0,0,-0.1,171.21314,266.59844)"
         id="g103">
        <use
           xlink:href="#DejaVuSans-2212"
           id="use95"
           x="0"
           y="0"
           width="100%"
           height="100%" />
        <use
           x="83.789062"
           xlink:href="#DejaVuSans-30"
           id="use97"
           y="0"
           width="100%"
           height="100%" />
        <use
           x="147.41211"
           xlink:href="#DejaVuSans-2e"
           id="use99"
           y="0"
           width="100%"
           height="100%" />
        <use
           x="179.19922"
           xlink:href="#DejaVuSans-35"
           id="use101"
           y="0"
           width="100%"
           height="100%" />
      </g>
    </g>
    <g
       id="xtick_5"
       style="stroke:#000001;stroke-opacity:1">
      <g
         id="line2d_9"
         style="stroke:#000001;stroke-opacity:1">
        <path
           clip-path="url(#p71d90ec804)"
           d="m 221.4,242.11326 0,-197.716284"
           style="fill:none;stroke:#000001;stroke-width:0.8;stroke-linecap:square;stroke-opacity:1"
           id="path107"
           sodipodi:nodetypes="cc" />
      </g>
      <g
         id="line2d_10"
         style="stroke:#000001;stroke-opacity:1">
        <g
           id="g112"
           style="stroke:#000001;stroke-opacity:1">
          <use
             style="stroke:#000001;stroke-width:0.8;stroke-opacity:1"
             x="221.39999"
             xlink:href="#m9e0cbd86d6"
             y="252"
             id="use110"
             width="100%"
             height="100%" />
        </g>
      </g>
      <g
         id="text_5"
         style="stroke:#000001;stroke-opacity:1">
        <!-- 0.0 -->
        <g
           transform="matrix(0.1,0,0,-0.1,213.44844,266.59844)"
           id="g121"
           style="stroke:#000001;stroke-opacity:1">
          <use
             xlink:href="#DejaVuSans-30"
             id="use115"
             x="0"
             y="0"
             width="100%"
             height="100%"
             style="stroke:#000001;stroke-opacity:1" />
          <use
             x="63.623047"
             xlink:href="#DejaVuSans-2e"
             id="use117"
             y="0"
             width="100%"
             height="100%"
             style="stroke:#000001;stroke-opacity:1" />
          <use
             x="95.410156"
             xlink:href="#DejaVuSans-30"
             id="use119"
             y="0"
             width="100%"
             height="100%"
             style="stroke:#000001;stroke-opacity:1" />
        </g>
      </g>
    </g>
    <g
       id="xtick_6"
       style="stroke:#000001;stroke-opacity:1">
      <g
         id="line2d_11"
         style="stroke:#000001;stroke-opacity:1">
        <path
           clip-path="url(#p71d90ec804)"
           d="M 259.44545,242.19064 V 56.531135"
           style="fill:none;stroke:#000001;stroke-width:0.8;stroke-linecap:square;stroke-opacity:1"
           id="path125"
           sodipodi:nodetypes="cc" />
      </g>
      <g
         id="line2d_12"
         style="stroke:#000001;stroke-opacity:1">
        <g
           id="g130"
           style="stroke:#000001;stroke-opacity:1">
          <use
             style="stroke:#000001;stroke-width:0.8;stroke-opacity:1"
             x="259.44547"
             xlink:href="#m9e0cbd86d6"
             y="252"
             id="use128"
             width="100%"
             height="100%" />
        </g>
      </g>
      <g
         id="text_6"
         style="stroke:#000001;stroke-opacity:1">
        <!-- 0.5 -->
        <g
           transform="matrix(0.1,0,0,-0.1,251.49389,266.59844)"
           id="g139"
           style="stroke:#000001;stroke-opacity:1">
          <use
             xlink:href="#DejaVuSans-30"
             id="use133"
             x="0"
             y="0"
             width="100%"
             height="100%"
             style="stroke:#000001;stroke-opacity:1" />
          <use
             x="63.623047"
             xlink:href="#DejaVuSans-2e"
             id="use135"
             y="0"
             width="100%"
             height="100%"
             style="stroke:#000001;stroke-opacity:1" />
          <use
             x="95.410156"
             xlink:href="#DejaVuSans-35"
             id="use137"
             y="0"
             width="100%"
             height="100%"
             style="stroke:#000001;stroke-opacity:1" />
        </g>
      </g>
    </g>
    <g
       id="xtick_7"
       style="stroke:#000001;stroke-opacity:1">
      <g
         id="line2d_13"
         style="stroke:#000001;stroke-opacity:1">
        <path
           clip-path="url(#p71d90ec804)"
           d="m 297.49091,242.10083 0,-148.571111"
           style="fill:none;stroke:#000001;stroke-width:0.8;stroke-linecap:square;stroke-opacity:1"
           id="path143"
           sodipodi:nodetypes="cc" />
      </g>
      <g
         id="line2d_14"
         style="stroke:#000001;stroke-opacity:1">
        <g
           id="g148"
           style="stroke:#000001;stroke-opacity:1">
          <use
             style="stroke:#000001;stroke-width:0.8;stroke-opacity:1"
             x="297.49091"
             xlink:href="#m9e0cbd86d6"
             y="252"
             id="use146"
             width="100%"
             height="100%" />
        </g>
      </g>
      <g
         id="text_7"
         style="stroke:#000001;stroke-opacity:1">
        <!-- 1.0 -->
        <g
           transform="matrix(0.1,0,0,-0.1,289.53935,266.59844)"
           id="g157"
           style="stroke:#000001;stroke-opacity:1">
          <use
             xlink:href="#DejaVuSans-31"
             id="use151"
             x="0"
             y="0"
             width="100%"
             height="100%"
             style="stroke:#000001;stroke-opacity:1" />
          <use
             x="63.623047"
             xlink:href="#DejaVuSans-2e"
             id="use153"
             y="0"
             width="100%"
             height="100%"
             style="stroke:#000001;stroke-opacity:1" />
          <use
             x="95.410156"
             xlink:href="#DejaVuSans-30"
             id="use155"
             y="0"
             width="100%"
             height="100%"
             style="stroke:#000001;stroke-opacity:1" />
        </g>
      </g>
    </g>
    <g
       id="xtick_8">
      <g
         id="line2d_16">
        <g
           id="g166">
          <use
             style="stroke:#000000;stroke-width:0.8"
             x="335.53638"
             xlink:href="#m9e0cbd86d6"
             y="252"
             id="use164"
             width="100%"
             height="100%" />
        </g>
      </g>
      <g
         id="text_8">
        <!-- 1.5 -->
        <g
           transform="matrix(0.1,0,0,-0.1,327.5848,266.59844)"
           id="g175">
          <use
             xlink:href="#DejaVuSans-31"
             id="use169"
             x="0"
             y="0"
             width="100%"
             height="100%" />
          <use
             x="63.623047"
             xlink:href="#DejaVuSans-2e"
             id="use171"
             y="0"
             width="100%"
             height="100%" />
          <use
             x="95.410156"
             xlink:href="#DejaVuSans-35"
             id="use173"
             y="0"
             width="100%"
             height="100%" />
        </g>
      </g>
    </g>
    <g
       id="xtick_9">
      <g
         id="line2d_17" />
      <g
         id="line2d_18">
        <g
           id="g184">
          <use
             style="stroke:#000000;stroke-width:0.8"
             x="373.58182"
             xlink:href="#m9e0cbd86d6"
             y="252"
             id="use182"
             width="100%"
             height="100%" />
        </g>
      </g>
      <g
         id="text_9">
        <!-- 2.0 -->
        <g
           transform="matrix(0.1,0,0,-0.1,365.63026,266.59844)"
           id="g193">
          <use
             xlink:href="#DejaVuSans-32"
             id="use187"
             x="0"
             y="0"
             width="100%"
             height="100%" />
          <use
             x="63.623047"
             xlink:href="#DejaVuSans-2e"
             id="use189"
             y="0"
             width="100%"
             height="100%" />
          <use
             x="95.410156"
             xlink:href="#DejaVuSans-30"
             id="use191"
             y="0"
             width="100%"
             height="100%" />
        </g>
      </g>
    </g>
    <g
       id="text_10">
      <!-- x -->
      <g
         transform="matrix(0.1,0,0,-0.1,218.44062,280.27656)"
         id="g202">
        <defs
           id="defs198">
          <path
             d="M 3513,3500 2247,1797 3578,0 H 2900 L 1881,1375 863,0 H 184 L 1544,1831 300,3500 h 678 l 928,-1247 928,1247 z"
             id="DejaVuSans-78"
             transform="scale(0.015625)" />
        </defs>
        <use
           xlink:href="#DejaVuSans-78"
           id="use200"
           x="0"
           y="0"
           width="100%"
           height="100%" />
      </g>
    </g>
    <g
       id="matplotlib.axis_2">
      <g
         id="ytick_1">
        <g
           id="line2d_19"
           style="stroke:#000000;stroke-opacity:1">
          <path
             clip-path="url(#p71d90ec804)"
             d="M 54,242.11636 H 388.8"
             style="fill:none;stroke:#000000;stroke-width:0.8;stroke-linecap:square;stroke-opacity:1"
             id="path206" />
        </g>
        <g
           id="line2d_20">
          <defs
             id="defs210">
            <path
               d="M 0,0 H -3.5"
               id="m06c5880805"
               style="stroke:#000000;stroke-width:0.8" />
          </defs>
          <g
             id="g214">
            <use
               style="stroke:#000000;stroke-width:0.8"
               x="54"
               xlink:href="#m06c5880805"
               y="242.11636"
               id="use212"
               width="100%"
               height="100%" />
          </g>
        </g>
        <g
           id="text_11">
          <!-- 0.0 -->
          <g
             transform="matrix(0.1,0,0,-0.1,31.096875,245.91558)"
             id="g223">
            <use
               xlink:href="#DejaVuSans-30"
               id="use217"
               x="0"
               y="0"
               width="100%"
               height="100%" />
            <use
               x="63.623047"
               xlink:href="#DejaVuSans-2e"
               id="use219"
               y="0"
               width="100%"
               height="100%" />
            <use
               x="95.410156"
               xlink:href="#DejaVuSans-30"
               id="use221"
               y="0"
               width="100%"
               height="100%" />
          </g>
        </g>
      </g>
      <g
         id="ytick_2">
        <g
           id="line2d_21" />
        <g
           id="line2d_22">
          <g
             id="g232">
            <use
               style="stroke:#000000;stroke-width:0.8"
               x="54"
               xlink:href="#m06c5880805"
               y="217.40475"
               id="use230"
               width="100%"
               height="100%" />
          </g>
        </g>
        <g
           id="text_12">
          <!-- 0.5 -->
          <g
             transform="matrix(0.1,0,0,-0.1,31.096875,221.20397)"
             id="g241">
            <use
               xlink:href="#DejaVuSans-30"
               id="use235"
               x="0"
               y="0"
               width="100%"
               height="100%" />
            <use
               x="63.623047"
               xlink:href="#DejaVuSans-2e"
               id="use237"
               y="0"
               width="100%"
               height="100%" />
            <use
               x="95.410156"
               xlink:href="#DejaVuSans-35"
               id="use239"
               y="0"
               width="100%"
               height="100%" />
          </g>
        </g>
      </g>
      <g
         id="ytick_3">
        <g
           id="line2d_23" />
        <g
           id="line2d_24">
          <g
             id="g250">
            <use
               style="stroke:#000000;stroke-width:0.8"
               x="54"
               xlink:href="#m06c5880805"
               y="192.69315"
               id="use248"
               width="100%"
               height="100%" />
          </g>
        </g>
        <g
           id="text_13">
          <!-- 1.0 -->
          <g
             transform="matrix(0.1,0,0,-0.1,31.096875,196.49236)"
             id="g259">
            <use
               xlink:href="#DejaVuSans-31"
               id="use253"
               x="0"
               y="0"
               width="100%"
               height="100%" />
            <use
               x="63.623047"
               xlink:href="#DejaVuSans-2e"
               id="use255"
               y="0"
               width="100%"
               height="100%" />
            <use
               x="95.410156"
               xlink:href="#DejaVuSans-30"
               id="use257"
               y="0"
               width="100%"
               height="100%" />
          </g>
        </g>
      </g>
      <g
         id="ytick_4">
        <g
           id="line2d_25" />
        <g
           id="line2d_26">
          <g
             id="g268">
            <use
               style="stroke:#000000;stroke-width:0.8"
               x="54"
               xlink:href="#m06c5880805"
               y="167.98152"
               id="use266"
               width="100%"
               height="100%" />
          </g>
        </g>
        <g
           id="text_14">
          <!-- 1.5 -->
          <g
             transform="matrix(0.1,0,0,-0.1,31.096875,171.78075)"
             id="g277">
            <use
               xlink:href="#DejaVuSans-31"
               id="use271"
               x="0"
               y="0"
               width="100%"
               height="100%" />
            <use
               x="63.623047"
               xlink:href="#DejaVuSans-2e"
               id="use273"
               y="0"
               width="100%"
               height="100%" />
            <use
               x="95.410156"
               xlink:href="#DejaVuSans-35"
               id="use275"
               y="0"
               width="100%"
               height="100%" />
          </g>
        </g>
      </g>
      <g
         id="ytick_5">
        <g
           id="line2d_27" />
        <g
           id="line2d_28">
          <g
             id="g286">
            <use
               style="stroke:#000000;stroke-width:0.8"
               x="54"
               xlink:href="#m06c5880805"
               y="143.26991"
               id="use284"
               width="100%"
               height="100%" />
          </g>
        </g>
        <g
           id="text_15">
          <!-- 2.0 -->
          <g
             transform="matrix(0.1,0,0,-0.1,31.096875,147.06913)"
             id="g295">
            <use
               xlink:href="#DejaVuSans-32"
               id="use289"
               x="0"
               y="0"
               width="100%"
               height="100%" />
            <use
               x="63.623047"
               xlink:href="#DejaVuSans-2e"
               id="use291"
               y="0"
               width="100%"
               height="100%" />
            <use
               x="95.410156"
               xlink:href="#DejaVuSans-30"
               id="use293"
               y="0"
               width="100%"
               height="100%" />
          </g>
        </g>
      </g>
      <g
         id="ytick_6">
        <g
           id="line2d_29" />
        <g
           id="line2d_30">
          <g
             id="g304">
            <use
               style="stroke:#000000;stroke-width:0.8"
               x="54"
               xlink:href="#m06c5880805"
               y="118.5583"
               id="use302"
               width="100%"
               height="100%" />
          </g>
        </g>
        <g
           id="text_16">
          <!-- 2.5 -->
          <g
             transform="matrix(0.1,0,0,-0.1,31.096875,122.35752)"
             id="g313">
            <use
               xlink:href="#DejaVuSans-32"
               id="use307"
               x="0"
               y="0"
               width="100%"
               height="100%" />
            <use
               x="63.623047"
               xlink:href="#DejaVuSans-2e"
               id="use309"
               y="0"
               width="100%"
               height="100%" />
            <use
               x="95.410156"
               xlink:href="#DejaVuSans-35"
               id="use311"
               y="0"
               width="100%"
               height="100%" />
          </g>
        </g>
      </g>
      <g
         id="ytick_7">
        <g
           id="line2d_31" />
        <g
           id="line2d_32">
          <g
             id="g322">
            <use
               style="stroke:#000000;stroke-width:0.8"
               x="54"
               xlink:href="#m06c5880805"
               y="93.846687"
               id="use320"
               width="100%"
               height="100%" />
          </g>
        </g>
        <g
           id="text_17">
          <!-- 3.0 -->
          <g
             transform="matrix(0.1,0,0,-0.1,31.096875,97.645909)"
             id="g334">
            <defs
               id="defs326">
              <path
                 d="m 2597,2516 q 453,-97 707,-404 255,-306 255,-756 0,-690 -475,-1069 -475,-378 -1350,-378 -293,0 -604,58 -311,58 -642,174 v 609 q 262,-153 574,-231 313,-78 654,-78 593,0 904,234 311,234 311,681 0,413 -289,645 -289,233 -804,233 h -544 v 519 h 569 q 465,0 712,186 247,186 247,536 0,359 -255,551 -254,193 -729,193 -260,0 -557,-57 -297,-56 -653,-174 v 562 q 360,100 674,150 314,50 592,50 719,0 1137,-327 419,-326 419,-882 0,-388 -222,-655 -222,-267 -631,-370 z"
                 id="DejaVuSans-33"
                 transform="scale(0.015625)" />
            </defs>
            <use
               xlink:href="#DejaVuSans-33"
               id="use328"
               x="0"
               y="0"
               width="100%"
               height="100%" />
            <use
               x="63.623047"
               xlink:href="#DejaVuSans-2e"
               id="use330"
               y="0"
               width="100%"
               height="100%" />
            <use
               x="95.410156"
               xlink:href="#DejaVuSans-30"
               id="use332"
               y="0"
               width="100%"
               height="100%" />
          </g>
        </g>
      </g>
      <g
         id="ytick_8">
        <g
           id="line2d_33" />
        <g
           id="line2d_34">
          <g
             id="g343">
            <use
               style="stroke:#000000;stroke-width:0.8"
               x="54"
               xlink:href="#m06c5880805"
               y="69.135078"
               id="use341"
               width="100%"
               height="100%" />
          </g>
        </g>
        <g
           id="text_18">
          <!-- 3.5 -->
          <g
             transform="matrix(0.1,0,0,-0.1,31.096875,72.934297)"
             id="g352">
            <use
               xlink:href="#DejaVuSans-33"
               id="use346"
               x="0"
               y="0"
               width="100%"
               height="100%" />
            <use
               x="63.623047"
               xlink:href="#DejaVuSans-2e"
               id="use348"
               y="0"
               width="100%"
               height="100%" />
            <use
               x="95.410156"
               xlink:href="#DejaVuSans-35"
               id="use350"
               y="0"
               width="100%"
               height="100%" />
          </g>
        </g>
      </g>
      <g
         id="ytick_9">
        <g
           id="line2d_35" />
        <g
           id="line2d_36">
          <g
             id="g361">
            <use
               style="stroke:#000000;stroke-width:0.8"
               x="54"
               xlink:href="#m06c5880805"
               y="44.423466"
               id="use359"
               width="100%"
               height="100%" />
          </g>
        </g>
        <g
           id="text_19">
          <!-- 4.0 -->
          <g
             transform="matrix(0.1,0,0,-0.1,31.096875,48.222684)"
             id="g373">
            <defs
               id="defs365">
              <path
                 d="M 2419,4116 825,1625 h 1594 z m -166,550 h 794 V 1625 h 666 V 1100 H 3047 V 0 H 2419 V 1100 H 313 v 609 z"
                 id="DejaVuSans-34"
                 transform="scale(0.015625)" />
            </defs>
            <use
               xlink:href="#DejaVuSans-34"
               id="use367"
               x="0"
               y="0"
               width="100%"
               height="100%" />
            <use
               x="63.623047"
               xlink:href="#DejaVuSans-2e"
               id="use369"
               y="0"
               width="100%"
               height="100%" />
            <use
               x="95.410156"
               xlink:href="#DejaVuSans-30"
               id="use371"
               y="0"
               width="100%"
               height="100%" />
          </g>
        </g>
      </g>
    </g>
    <path
       clip-path="url(#p71d90ec804)"
       d="m 69.218182,242.11636 3.07438,-7.90691 3.07438,-7.74554 3.07438,-7.58418 3.07438,-7.42281 3.074381,-7.26145 3.07438,-7.10008 3.07438,-6.93872 3.07438,-6.77735 3.07438,-6.61598 3.07438,-6.45462 3.074377,-6.29325 3.07438,-6.13189 3.07438,-5.97053 3.07438,-5.80915 3.07438,-5.6478 3.07438,-5.48642 3.07439,-5.32506 3.07437,-5.1637 3.07439,-5.00233 3.07437,-4.84096 3.07438,-4.6796 3.07438,-4.51824 3.07439,-4.35687 3.07438,-4.195499 3.07438,-4.034137 3.07438,-3.872772 3.07438,-3.711406 3.07438,-3.550041 3.07438,-3.388675 3.07438,-3.22731 3.07438,-3.065945 3.07438,-2.904578 3.07438,-2.743214 3.07438,-2.581848 3.07438,-2.420482 3.07438,-2.259117 3.07438,-2.097751 3.07438,-1.936386 3.07438,-1.775021 3.07438,-1.613655 3.07438,-1.452289 3.07438,-1.290924 3.07438,-1.129558 3.07438,-0.968193 3.07438,-0.806828 3.07438,-0.645462 3.07438,-0.484096 3.07438,-0.322731 3.07438,-0.161366 h 3.07438 l 3.07438,0.161366 3.07438,0.322731 3.07438,0.484096 3.07438,0.645462 3.07438,0.806828 3.07438,0.968193 3.07438,1.129558 3.07438,1.290924 3.07438,1.452289 3.07438,1.613655 3.07438,1.775021 3.07438,1.936386 3.07438,2.097751 3.07438,2.259117 3.07438,2.420482 3.07438,2.581848 3.07438,2.743214 3.07438,2.904578 3.07438,3.065945 3.07438,3.22731 3.07438,3.388675 3.07438,3.550041 3.07438,3.711406 3.07438,3.872772 3.07438,4.034137 3.07438,4.195499 3.07438,4.35687 3.07438,4.51824 3.07439,4.6796 3.07437,4.84096 3.07438,5.00233 3.07439,5.1637 3.07438,5.32506 3.07438,5.48642 3.07438,5.6478 3.07438,5.80915 3.07438,5.97053 3.07438,6.13189 3.07438,6.29325 3.07438,6.45462 3.07438,6.61598 3.07438,6.77735 3.07438,6.93872 3.07438,7.10008 3.07438,7.26145 3.07438,7.42281 3.07438,7.58418 3.07438,7.74554 3.07438,7.90691"
       style="fill:none;stroke:#1f77b4;stroke-width:1.5;stroke-linecap:square"
       id="path378" />
    <g
       id="patch_3">
      <path
         d="M 54,252 V 34.56"
         style="fill:none;stroke:#000000;stroke-width:0.8;stroke-linecap:square;stroke-linejoin:miter"
         id="path381" />
    </g>
    <g
       id="patch_4">
      <path
         d="M 388.8,252 V 34.56"
         style="fill:none;stroke:#000000;stroke-width:0.8;stroke-linecap:square;stroke-linejoin:miter"
         id="path384" />
    </g>
    <g
       id="patch_5">
      <path
         d="M 54,252 H 388.8"
         style="fill:none;stroke:#000000;stroke-width:0.8;stroke-linecap:square;stroke-linejoin:miter"
         id="path387" />
    </g>
    <g
       id="patch_6">
      <path
         d="M 54,34.56 H 388.8"
         style="fill:none;stroke:#000000;stroke-width:0.8;stroke-linecap:square;stroke-linejoin:miter"
         id="path390" />
    </g>
    <g
       id="legend_1"
       transform="translate(2.9623121,8.5440634)">
      <g
         id="patch_7" />
      <g
         id="line2d_39" />
      <g
         id="text_20"
         transform="translate(-0.35567512,66.509987)">
        <!-- $f(x) = 4 - x^2$ -->
        <g
           transform="matrix(0.1,0,0,-0.1,320.5,51.980312)"
           id="g425">
          <defs
             id="defs405">
            <path
               d="m 3059,4863 -90,-479 h -550 q -313,0 -455,-123 -142,-123 -211,-452 l -62,-309 h 947 l -85,-447 H 1606 L 1013,0 H 434 l 597,3053 H 481 l 82,447 h 550 l 46,244 q 119,619 417,869 299,250 940,250 z"
               id="DejaVuSans-Oblique-66"
               transform="scale(0.015625)" />
            <path
               d="m 1984,4856 q -418,-718 -622,-1422 -203,-703 -203,-1425 0,-721 205,-1429 205,-708 620,-1424 h -500 q -468,735 -701,1444 -233,709 -233,1409 0,697 231,1403 232,707 703,1444 z"
               id="DejaVuSans-28"
               transform="scale(0.015625)" />
            <path
               d="M 3841,3500 2234,1784 3219,0 H 2559 L 1819,1388 531,0 H -166 L 1556,1844 641,3500 h 659 l 672,-1266 1172,1266 z"
               id="DejaVuSans-Oblique-78"
               transform="scale(0.015625)" />
            <path
               d="m 513,4856 h 500 q 468,-737 701,-1444 233,-706 233,-1403 0,-700 -233,-1409 -233,-709 -701,-1444 H 513 q 415,716 620,1424 205,708 205,1429 0,722 -205,1425 -205,704 -620,1422 z"
               id="DejaVuSans-29"
               transform="scale(0.015625)" />
            <path
               d="M 678,2906 H 4684 V 2381 H 678 Z m 0,-1275 H 4684 V 1100 H 678 Z"
               id="DejaVuSans-3d"
               transform="scale(0.015625)" />
          </defs>
          <use
             transform="translate(0,0.765625)"
             xlink:href="#DejaVuSans-Oblique-66"
             id="use407"
             x="0"
             y="0"
             width="100%"
             height="100%" />
          <use
             transform="translate(35.205078,0.765625)"
             xlink:href="#DejaVuSans-28"
             id="use409"
             x="0"
             y="0"
             width="100%"
             height="100%" />
          <use
             transform="translate(74.21875,0.765625)"
             xlink:href="#DejaVuSans-Oblique-78"
             id="use411"
             x="0"
             y="0"
             width="100%"
             height="100%" />
          <use
             transform="translate(133.39844,0.765625)"
             xlink:href="#DejaVuSans-29"
             id="use413"
             x="0"
             y="0"
             width="100%"
             height="100%" />
          <use
             transform="translate(191.89453,0.765625)"
             xlink:href="#DejaVuSans-3d"
             id="use415"
             x="0"
             y="0"
             width="100%"
             height="100%" />
          <use
             transform="translate(295.16602,0.765625)"
             xlink:href="#DejaVuSans-34"
             id="use417"
             x="0"
             y="0"
             width="100%"
             height="100%" />
          <use
             transform="translate(378.27148,0.765625)"
             xlink:href="#DejaVuSans-2212"
             id="use419"
             x="0"
             y="0"
             width="100%"
             height="100%" />
          <use
             transform="translate(481.54297,0.765625)"
             xlink:href="#DejaVuSans-Oblique-78"
             id="use421"
             x="0"
             y="0"
             width="100%"
             height="100%" />
          <use
             transform="matrix(0.7,0,0,0.7,545.1888,39.046875)"
             xlink:href="#DejaVuSans-32"
             id="use423"
             x="0"
             y="0"
             width="100%"
             height="100%" />
        </g>
      </g>
    </g>
    <text
       xml:space="preserve"
       style="font-style:normal;font-weight:normal;font-size:18px;line-height:1.25;font-family:sans-serif;fill:#000000;fill-opacity:1;stroke:none;stroke-width:0.75"
       x="159.44031"
       y="148.6434"
       id="text10036"><tspan
         sodipodi:role="line"
         id="tspan10034"
         style="font-size:18px;stroke-width:0.75"
         x="159.44031"
         y="148.6434">A</tspan></text>
    <text
       xml:space="preserve"
       style="font-style:normal;font-weight:normal;font-size:18px;line-height:1.25;font-family:sans-serif;fill:#000000;fill-opacity:1;stroke:none;stroke-width:0.75;stroke-linecap:butt;stroke-linejoin:round"
       x="196.68387"
       y="148.6434"
       id="text10036-9"><tspan
         sodipodi:role="line"
         id="tspan10034-3"
         style="font-size:18px;stroke-width:0.75"
         x="196.68387"
         y="148.6434">B</tspan></text>
    <text
       xml:space="preserve"
       style="font-style:normal;font-weight:normal;font-size:18px;line-height:1.25;font-family:sans-serif;fill:#000000;fill-opacity:1;stroke:none;stroke-width:0.75;stroke-linecap:butt;stroke-linejoin:round"
       x="233.63481"
       y="148.6434"
       id="text10036-6"><tspan
         sodipodi:role="line"
         id="tspan10034-0"
         style="font-size:18px;stroke-width:0.75"
         x="233.63481"
         y="148.6434">C</tspan></text>
    <text
       xml:space="preserve"
       style="font-style:normal;font-weight:normal;font-size:18px;line-height:1.25;font-family:sans-serif;fill:#000000;fill-opacity:1;stroke:none;stroke-width:0.75;stroke-linecap:butt;stroke-linejoin:round"
       x="270.58575"
       y="148.6434"
       id="text10036-62"><tspan
         sodipodi:role="line"
         id="tspan10034-6"
         style="font-size:18px;stroke-width:0.75"
         x="270.58575"
         y="148.6434">D</tspan></text>
  </g>
  <defs
     id="defs434">
    <clipPath
       id="p71d90ec804">
      <rect
         height="217.44"
         width="334.8"
         x="54"
         y="34.56"
         id="rect431" />
    </clipPath>
  </defs>
</svg>
