<?xml version="1.0" encoding="UTF-8" standalone="no"?>
<!-- Created with Inkscape (http://www.inkscape.org/) -->

<svg
   xmlns:dc="http://purl.org/dc/elements/1.1/"
   xmlns:cc="http://creativecommons.org/ns#"
   xmlns:rdf="http://www.w3.org/1999/02/22-rdf-syntax-ns#"
   xmlns:svg="http://www.w3.org/2000/svg"
   xmlns="http://www.w3.org/2000/svg"
   xmlns:sodipodi="http://sodipodi.sourceforge.net/DTD/sodipodi-0.dtd"
   xmlns:inkscape="http://www.inkscape.org/namespaces/inkscape"
   version="1.1"
   id="svg2"
   xml:space="preserve"
   width="770"
   height="380"
   viewBox="0 0 769.99997 380"
   sodipodi:docname="img107.svg"
   inkscape:version="0.92.5 (2060ec1f9f, 2020-04-08)"><metadata
     id="metadata8"><rdf:RDF><cc:Work
         rdf:about=""><dc:format>image/svg+xml</dc:format><dc:type
           rdf:resource="http://purl.org/dc/dcmitype/StillImage" /><dc:title></dc:title></cc:Work></rdf:RDF></metadata><defs
     id="defs6"><clipPath
       clipPathUnits="userSpaceOnUse"
       id="clipPath20"><path
         d="M 0,360 H 5950 V 8060 H 0 Z"
         id="path18"
         inkscape:connector-curvature="0" /></clipPath><clipPath
       clipPathUnits="userSpaceOnUse"
       id="clipPath46"><path
         d="M 1745.33,2517.17 H 2975 V 5701 H 1745.33 Z"
         id="path44"
         inkscape:connector-curvature="0" /></clipPath><clipPath
       clipPathUnits="userSpaceOnUse"
       id="clipPath56"><path
         d="M 1745.33,2043.5 H 2975 V 6174.66 H 1745.33 Z"
         id="path54"
         inkscape:connector-curvature="0" /></clipPath><clipPath
       clipPathUnits="userSpaceOnUse"
       id="clipPath66"><path
         d="M 1745.33,2990.83 H 2975 v 2236.5 H 1745.33 Z"
         id="path64"
         inkscape:connector-curvature="0" /></clipPath><clipPath
       clipPathUnits="userSpaceOnUse"
       id="clipPath76"><path
         d="M 0,360 H 5950 V 8060 H 0 Z"
         id="path74"
         inkscape:connector-curvature="0" /></clipPath><clipPath
       clipPathUnits="userSpaceOnUse"
       id="clipPath94"><path
         d="m 2283.16,4758.33 h 213.5 v 94.5 h -213.5 z"
         id="path92"
         inkscape:connector-curvature="0" /></clipPath><clipPath
       clipPathUnits="userSpaceOnUse"
       id="clipPath108"><path
         d="m 2283.16,4635.83 h 213.5 v 95.668 h -213.5 z"
         id="path106"
         inkscape:connector-curvature="0" /></clipPath><clipPath
       clipPathUnits="userSpaceOnUse"
       id="clipPath122"><path
         d="m 2283.16,4235.66 h 213.5 v 95.668 h -213.5 z"
         id="path120"
         inkscape:connector-curvature="0" /></clipPath><clipPath
       clipPathUnits="userSpaceOnUse"
       id="clipPath136"><path
         d="M 0,360 H 5950 V 8060 H 0 Z"
         id="path134"
         inkscape:connector-curvature="0" /></clipPath><clipPath
       clipPathUnits="userSpaceOnUse"
       id="clipPath158"><path
         d="m 2283.16,6769.66 h 213.5 v 94.5 h -213.5 z"
         id="path156"
         inkscape:connector-curvature="0" /></clipPath><clipPath
       clipPathUnits="userSpaceOnUse"
       id="clipPath172"><path
         d="m 2283.16,6648.33 h 213.5 v 95.6641 h -213.5 z"
         id="path170"
         inkscape:connector-curvature="0" /></clipPath><clipPath
       clipPathUnits="userSpaceOnUse"
       id="clipPath186"><path
         d="m 2283.16,6271.5 h 213.5 v 95.6641 h -213.5 z"
         id="path184"
         inkscape:connector-curvature="0" /></clipPath><clipPath
       clipPathUnits="userSpaceOnUse"
       id="clipPath200"><path
         d="M 0,360 H 5950 V 8060 H 0 Z"
         id="path198"
         inkscape:connector-curvature="0" /></clipPath><clipPath
       clipPathUnits="userSpaceOnUse"
       id="clipPath214"><path
         d="m 2975,709.996 h 2625 v 7000 H 2975 Z"
         id="path212"
         inkscape:connector-curvature="0"
         style="clip-rule:evenodd" /></clipPath><clipPath
       clipPathUnits="userSpaceOnUse"
       id="clipPath224"><path
         d="M 0,360 H 5950 V 8060 H 0 Z"
         id="path222"
         inkscape:connector-curvature="0" /></clipPath><clipPath
       clipPathUnits="userSpaceOnUse"
       id="clipPath250"><path
         d="m 2975,2517.17 h 691.832 V 5701 H 2975 Z"
         id="path248"
         inkscape:connector-curvature="0" /></clipPath><clipPath
       clipPathUnits="userSpaceOnUse"
       id="clipPath260"><path
         d="M 2975,2043.5 H 3978.33 V 6174.66 H 2975 Z"
         id="path258"
         inkscape:connector-curvature="0" /></clipPath><clipPath
       clipPathUnits="userSpaceOnUse"
       id="clipPath270"><path
         d="m 2975,2990.83 h 532 v 2236.5 h -532 z"
         id="path268"
         inkscape:connector-curvature="0" /></clipPath><clipPath
       clipPathUnits="userSpaceOnUse"
       id="clipPath280"><path
         d="M 0,360 H 5950 V 8060 H 0 Z"
         id="path278"
         inkscape:connector-curvature="0" /></clipPath></defs><sodipodi:namedview
     pagecolor="#ffffff"
     bordercolor="#666666"
     borderopacity="1"
     objecttolerance="10"
     gridtolerance="10"
     guidetolerance="10"
     inkscape:pageopacity="0"
     inkscape:pageshadow="2"
     inkscape:window-width="1366"
     inkscape:window-height="743"
     id="namedview4"
     showgrid="false"
     inkscape:zoom="0.49524937"
     inkscape:cx="276.82221"
     inkscape:cy="173.79243"
     inkscape:window-x="1366"
     inkscape:window-y="0"
     inkscape:window-maximized="1"
     inkscape:current-layer="g10" /><g
     id="g10"
     inkscape:groupmode="layer"
     inkscape:label="test"
     transform="matrix(0,1.3333333,1.3333333,0,0,-413.33331)"><g
       id="g14"
       transform="matrix(0.1,0,0,0.1,177.25541,-137.75181)"
       inkscape:export-xdpi="300"
       inkscape:export-ydpi="300"><g
         clip-path="url(#clipPath20)"
         id="g16"><g
           transform="scale(10)"
           id="g22"><text
             id="text26"
             style="font-style:italic;font-variant:normal;font-size:17.50088882px;font-family:Times;-inkscape-font-specification:Times-Italic;writing-mode:lr-tb;fill:#000000;fill-opacity:1;fill-rule:nonzero;stroke:none"
             transform="matrix(0,1,0.9981036,0,167.066,562.4)"><tspan
               id="tspan24"
               y="0"
               x="0">f</tspan></text>
<text
             id="text30"
             style="font-variant:normal;font-weight:normal;font-size:17.50088882px;font-family:Times;-inkscape-font-specification:Times-Roman;writing-mode:lr-tb;fill:#000000;fill-opacity:1;fill-rule:nonzero;stroke:none"
             transform="matrix(0,1,0.9981036,0,167.066,567.3)"><tspan
               id="tspan28"
               y="0"
               x="0">(</tspan></text>
<text
             id="text34"
             style="font-style:italic;font-variant:normal;font-size:17.50088882px;font-family:Times;-inkscape-font-specification:Times-Italic;writing-mode:lr-tb;fill:#000000;fill-opacity:1;fill-rule:nonzero;stroke:none"
             transform="matrix(0,1,0.9981036,0,167.066,573.25001)"><tspan
               id="tspan32"
               y="0"
               x="0">x</tspan></text>
<text
             id="text38"
             style="font-variant:normal;font-weight:normal;font-size:17.50088882px;font-family:Times;-inkscape-font-specification:Times-Roman;writing-mode:lr-tb;fill:#000000;fill-opacity:1;fill-rule:nonzero;stroke:none"
             transform="matrix(0,1,0.9981036,0,167.066,580.95001)"><tspan
               id="tspan36"
               y="0"
               x="0">)</tspan></text>
</g></g></g><g
       id="g40"
       transform="matrix(0.1,0,0,0.1,177.25541,-137.75181)"
       inkscape:export-xdpi="300"
       inkscape:export-ydpi="300"><g
         clip-path="url(#clipPath46)"
         id="g42"><path
           inkscape:connector-curvature="0"
           id="path48"
           style="fill:none;stroke:#000000;stroke-width:21.01169968;stroke-linecap:round;stroke-linejoin:round;stroke-miterlimit:10;stroke-dasharray:none;stroke-opacity:1"
           d="m 1757,5687 168,-73.5 162.17,-73.5 151.66,-73.5 144.67,-74.67 137.66,-73.5 128.34,-73.5 121.33,-73.5 114.33,-73.5 105,-73.5 99.17,-73.5 89.83,-72.33 81.67,-73.5 74.67,-73.5 66.5,-71.17 57.16,-74.67 52.5,-71.16 42,-71.17 36.17,-73.5 26.83,-72.33 19.84,-71.17 11.66,-72.33 4.67,-73.5 -4.67,-71.17 -11.66,-71.17 -19.84,-72.33 -26.83,-71.17 -36.17,-70 -42,-71.16 -52.5,-71.17 -57.16,-72.33 -66.5,-68.84 -74.67,-72.33 -81.67,-71.17 -89.83,-68.83 -99.17,-70 -105,-71.17 -114.33,-70 -121.33,-71.16 -128.34,-70 -137.66,-68.84 -144.67,-70 -151.66,-68.83 -162.17,-70 -168,-70" /></g></g><g
       id="g50"
       transform="matrix(0.1,0,0,0.1,177.25541,-137.75181)"
       inkscape:export-xdpi="300"
       inkscape:export-ydpi="300"><g
         clip-path="url(#clipPath56)"
         id="g52"><path
           inkscape:connector-curvature="0"
           id="path58"
           style="fill:none;stroke:#000000;stroke-width:21.01169968;stroke-linecap:round;stroke-linejoin:round;stroke-miterlimit:10;stroke-dasharray:none;stroke-opacity:1"
           d="m 1757,6160.66 184.33,-88.66 175,-89.84 168,-88.66 161,-91 150.5,-87.5 145.83,-88.67 134.17,-91 128.33,-88.67 120.17,-87.5 112,-88.66 105,-88.67 94.5,-88.67 88.67,-88.66 80.5,-87.5 71.16,-88.67 65.34,-88.67 54.83,-88.66 47.83,-87.5 39.67,-86.34 32.67,-88.66 24.5,-88.67 15.16,-86.33 8.17,-88.67 v -86.33 l -8.17,-88.67 -15.16,-86.33 -24.5,-85.17 -32.67,-88.67 -39.67,-86.33 -47.83,-86.33 -54.83,-86.34 -65.34,-88.66 -71.16,-86.34 -80.5,-86.33 -88.67,-86.33 -94.5,-86.34 -105,-86.33 -112,-86.33 -120.17,-84 -128.33,-86.34 -134.17,-86.33 -145.83,-86.33 -150.5,-84 -161,-86.33 -168,-84 -175,-86.34 -184.33,-85.16" /></g></g><g
       id="g60"
       transform="matrix(0.1,0,0,0.1,177.25541,-137.75181)"
       inkscape:export-xdpi="300"
       inkscape:export-ydpi="300"><g
         clip-path="url(#clipPath66)"
         id="g62"><path
           inkscape:connector-curvature="0"
           id="path68"
           style="fill:none;stroke:#000000;stroke-width:21.01169968;stroke-linecap:round;stroke-linejoin:round;stroke-miterlimit:10;stroke-dasharray:none;stroke-opacity:1"
           d="m 1757,5213.33 162.17,-52.5 152.83,-52.5 145.83,-52.5 138.83,-52.5 128.34,-52.5 121.33,-53.67 114.33,-52.5 107.34,-52.5 99.16,-52.5 89.84,-52.5 82.83,-52.5 75.83,-52.5 64.17,-52.5 59.5,-52.5 52.5,-53.66 42,-52.5 36.17,-52.5 26.83,-52.5 18.67,-52.5 12.83,-52.5 4.67,-52.5 -4.67,-52.5 -12.83,-52.5 -18.67,-53.67 -26.83,-52.5 -36.17,-52.5 -42,-52.5 -52.5,-52.5 -59.5,-52.5 -64.17,-52.5 -75.83,-52.5 -82.83,-52.5 -89.84,-53.67 -99.16,-52.5 -107.34,-52.5 -114.33,-52.5 -121.33,-52.5 -128.34,-52.5 -138.83,-52.5 -145.83,-52.5 -152.83,-52.5 L 1757,3002.5" /></g></g><g
       id="g70"
       transform="matrix(0.1,0,0,0.1,177.25541,-137.75181)"
       inkscape:export-xdpi="300"
       inkscape:export-ydpi="300"><g
         clip-path="url(#clipPath76)"
         id="g72"><g
           transform="scale(10)"
           id="g78"><text
             id="text82"
             style="font-variant:normal;font-weight:normal;font-size:12.29960251px;font-family:Times;-inkscape-font-specification:Times-Roman;writing-mode:lr-tb;fill:#000000;fill-opacity:1;fill-rule:nonzero;stroke:none"
             transform="matrix(0,1,0.99811357,0,250.25,485.983)"><tspan
               id="tspan80"
               sodipodi:role="line"
               y="0"
               x="0 -40.250031">22</tspan></text>
<text
             id="text86"
             style="font-variant:normal;font-weight:normal;font-size:17.57112122px;font-family:Times;-inkscape-font-specification:Times-Roman;writing-mode:lr-tb;fill:#000000;fill-opacity:1;fill-rule:nonzero;stroke:none"
             transform="matrix(0,1,0.9981036,0,245.816,454.716)"><tspan
               id="tspan84"
               sodipodi:role="line"
               y="0"
               x="0 -49.350388">)(</tspan></text>
</g></g></g><g
       id="g88"
       transform="matrix(0.1,0,0,0.1,177.25541,-137.75181)"
       inkscape:export-xdpi="300"
       inkscape:export-ydpi="300"><g
         clip-path="url(#clipPath94)"
         id="g90"><g
           transform="scale(10)"
           id="g96"><text
             id="text100"
             style="font-variant:normal;font-weight:normal;font-size:18.57036209px;font-family:Symbol;-inkscape-font-specification:Symbol;writing-mode:lr-tb;fill:#000000;fill-opacity:1;fill-rule:nonzero;stroke:none"
             transform="matrix(0,0.94618721,0.94439625,-0.32361978,245.816,475.833)"><tspan
               id="tspan98"
               y="0"
               x="0">ε</tspan></text>
</g></g></g><g
       id="g102"
       transform="matrix(0.1,0,0,0.1,177.25541,-137.75181)"
       inkscape:export-xdpi="300"
       inkscape:export-ydpi="300"><g
         clip-path="url(#clipPath108)"
         id="g104"><g
           transform="scale(10)"
           id="g110"><text
             id="text114"
             style="font-variant:normal;font-weight:normal;font-size:17.57112122px;font-family:Symbol;-inkscape-font-specification:Symbol;writing-mode:lr-tb;fill:#000000;fill-opacity:1;fill-rule:nonzero;stroke:none"
             transform="matrix(0,1,0.9981036,0,245.816,463.583)"><tspan
               id="tspan112"
               y="0"
               x="0">+</tspan></text>
</g></g></g><g
       id="g116"
       transform="matrix(0.1,0,0,0.1,177.25541,-137.75181)"
       inkscape:export-xdpi="300"
       inkscape:export-ydpi="300"><g
         clip-path="url(#clipPath122)"
         id="g118"><g
           transform="scale(10)"
           id="g124"><text
             id="text128"
             style="font-variant:normal;font-weight:normal;font-size:17.57112122px;font-family:Symbol;-inkscape-font-specification:Symbol;writing-mode:lr-tb;fill:#000000;fill-opacity:1;fill-rule:nonzero;stroke:none"
             transform="matrix(0,1,0.9981036,0,245.816,423.566)"><tspan
               id="tspan126"
               y="0"
               x="0">+</tspan></text>
</g></g></g><g
       id="g130"
       transform="matrix(0.1,0,0,0.1,177.25541,-137.75181)"
       inkscape:export-xdpi="300"
       inkscape:export-ydpi="300"><g
         clip-path="url(#clipPath136)"
         id="g132"><g
           transform="scale(10)"
           id="g138"><text
             id="text142"
             style="font-style:italic;font-variant:normal;font-size:17.57112122px;font-family:Times;-inkscape-font-specification:Times-Italic;writing-mode:lr-tb;fill:#000000;fill-opacity:1;fill-rule:nonzero;stroke:none"
             transform="matrix(0,1,0.9981036,0,245.816,436.633)"><tspan
               id="tspan140"
               sodipodi:role="line"
               y="0"
               x="0 -24.150398 -40.250431">hxf</tspan></text>
<text
             id="text146"
             style="font-variant:normal;font-weight:normal;font-size:12.29960251px;font-family:Times;-inkscape-font-specification:Times-Roman;writing-mode:lr-tb;fill:#000000;fill-opacity:1;fill-rule:nonzero;stroke:none"
             transform="matrix(0,1,0.99811357,0,250.25,685.833)"><tspan
               id="tspan144"
               sodipodi:role="line"
               y="0"
               x="0 -37.916428">11</tspan></text>
<text
             id="text150"
             style="font-variant:normal;font-weight:normal;font-size:17.57112122px;font-family:Times;-inkscape-font-specification:Times-Roman;writing-mode:lr-tb;fill:#000000;fill-opacity:1;fill-rule:nonzero;stroke:none"
             transform="matrix(0,1,0.9981036,0,245.816,655.966)"><tspan
               id="tspan148"
               sodipodi:role="line"
               y="0"
               x="0 -47.017162">)(</tspan></text>
</g></g></g><g
       id="g152"
       transform="matrix(0.1,0,0,0.1,177.25541,-137.75181)"
       inkscape:export-xdpi="300"
       inkscape:export-ydpi="300"><g
         clip-path="url(#clipPath158)"
         id="g154"><g
           transform="scale(10)"
           id="g160"><text
             id="text164"
             style="font-variant:normal;font-weight:normal;font-size:18.57036209px;font-family:Symbol;-inkscape-font-specification:Symbol;writing-mode:lr-tb;fill:#000000;fill-opacity:1;fill-rule:nonzero;stroke:none"
             transform="matrix(0,0.94618721,0.94439625,-0.32361978,245.816,676.966)"><tspan
               id="tspan162"
               y="0"
               x="0">ε</tspan></text>
</g></g></g><g
       id="g166"
       transform="matrix(0.1,0,0,0.1,177.25541,-137.75181)"
       inkscape:export-xdpi="300"
       inkscape:export-ydpi="300"><g
         clip-path="url(#clipPath172)"
         id="g168"><g
           transform="scale(10)"
           id="g174"><text
             id="text178"
             style="font-variant:normal;font-weight:normal;font-size:17.57112122px;font-family:Symbol;-inkscape-font-specification:Symbol;writing-mode:lr-tb;fill:#000000;fill-opacity:1;fill-rule:nonzero;stroke:none"
             transform="matrix(0,1,0.9981036,0,245.816,664.833)"><tspan
               id="tspan176"
               y="0"
               x="0">+</tspan></text>
</g></g></g><g
       id="g180"
       transform="matrix(0.1,0,0,0.1,177.25541,-137.75181)"
       inkscape:export-xdpi="300"
       inkscape:export-ydpi="300"><g
         clip-path="url(#clipPath186)"
         id="g182"><g
           transform="scale(10)"
           id="g188"><text
             id="text192"
             style="font-variant:normal;font-weight:normal;font-size:17.57112122px;font-family:Symbol;-inkscape-font-specification:Symbol;writing-mode:lr-tb;fill:#000000;fill-opacity:1;fill-rule:nonzero;stroke:none"
             transform="matrix(0,1,0.9981036,0,245.816,627.15)"><tspan
               id="tspan190"
               y="0"
               x="0">+</tspan></text>
</g></g></g><g
       id="g194"
       transform="matrix(0.1,0,0,0.1,177.25541,-137.75181)"
       inkscape:export-xdpi="300"
       inkscape:export-ydpi="300"><g
         clip-path="url(#clipPath200)"
         id="g196"><g
           transform="scale(10)"
           id="g202"><text
             id="text206"
             style="font-style:italic;font-variant:normal;font-size:17.57112122px;font-family:Times;-inkscape-font-specification:Times-Italic;writing-mode:lr-tb;fill:#000000;fill-opacity:1;fill-rule:nonzero;stroke:none"
             transform="matrix(0,1,0.9981036,0,245.816,640.1)"><tspan
               id="tspan204"
               sodipodi:role="line"
               y="0"
               x="0 -24.033577 -40.13361">hxf</tspan></text>
</g></g></g><g
       id="g218"
       transform="matrix(0.1,0,0,0.1,177.25541,-137.75181)"
       inkscape:export-xdpi="300"
       inkscape:export-ydpi="300"><g
         clip-path="url(#clipPath224)"
         id="g220"><path
           inkscape:connector-curvature="0"
           id="path232"
           style="fill:#ffffff;fill-opacity:1;fill-rule:evenodd;stroke:none"
           d="m 3705.33,6735.83 h 235.668 v 113.164 H 3705.33 Z" /><g
           transform="scale(10)"
           id="g234"><text
             id="text238"
             style="font-style:italic;font-variant:normal;font-size:17.50088882px;font-family:Times;-inkscape-font-specification:Times-Italic;writing-mode:lr-tb;fill:#000000;fill-opacity:1;fill-rule:nonzero;stroke:none"
             transform="matrix(0,1,0.9981036,0,388.033,675.45)"><tspan
               id="tspan236"
               y="0"
               x="0">x</tspan></text>
</g><path
           inkscape:connector-curvature="0"
           id="path240"
           style="fill:none;stroke:#000000;stroke-width:4.20233011;stroke-linecap:round;stroke-linejoin:round;stroke-miterlimit:10;stroke-dasharray:none;stroke-opacity:1"
           d="m 3652.83,1581.5 v 5236" /><path
           inkscape:connector-curvature="0"
           id="path242"
           style="fill:#000000;fill-opacity:1;fill-rule:evenodd;stroke:none"
           d="m 3605,6804.66 47.83,145.84 49,-145.84 H 3605" /></g></g><g
       id="g244"
       transform="matrix(0.1,0,0,0.1,177.25541,-137.75181)"
       inkscape:export-xdpi="300"
       inkscape:export-ydpi="300"><g
         clip-path="url(#clipPath250)"
         id="g246"><path
           inkscape:connector-curvature="0"
           id="path252"
           style="fill:none;stroke:#000000;stroke-width:21.01169968;stroke-linecap:round;stroke-linejoin:round;stroke-miterlimit:10;stroke-dasharray:none;stroke-opacity:1"
           d="m 1757,5687 168,-73.5 162.17,-73.5 151.66,-73.5 144.67,-74.67 137.66,-73.5 128.34,-73.5 121.33,-73.5 114.33,-73.5 105,-73.5 99.17,-73.5 89.83,-72.33 81.67,-73.5 74.67,-73.5 66.5,-71.17 57.16,-74.67 52.5,-71.16 42,-71.17 36.17,-73.5 26.83,-72.33 19.84,-71.17 11.66,-72.33 4.67,-73.5 -4.67,-71.17 -11.66,-71.17 -19.84,-72.33 -26.83,-71.17 -36.17,-70 -42,-71.16 -52.5,-71.17 -57.16,-72.33 -66.5,-68.84 -74.67,-72.33 -81.67,-71.17 -89.83,-68.83 -99.17,-70 -105,-71.17 -114.33,-70 -121.33,-71.16 -128.34,-70 -137.66,-68.84 -144.67,-70 -151.66,-68.83 -162.17,-70 -168,-70" /></g></g><g
       id="g254"
       transform="matrix(0.1,0,0,0.1,177.25541,-137.75181)"
       inkscape:export-xdpi="300"
       inkscape:export-ydpi="300"><g
         clip-path="url(#clipPath260)"
         id="g256"><path
           inkscape:connector-curvature="0"
           id="path262"
           style="fill:none;stroke:#000000;stroke-width:21.01169968;stroke-linecap:round;stroke-linejoin:round;stroke-miterlimit:10;stroke-dasharray:none;stroke-opacity:1"
           d="m 1757,6160.66 184.33,-88.66 175,-89.84 168,-88.66 161,-91 150.5,-87.5 145.83,-88.67 134.17,-91 128.33,-88.67 120.17,-87.5 112,-88.66 105,-88.67 94.5,-88.67 88.67,-88.66 80.5,-87.5 71.16,-88.67 65.34,-88.67 54.83,-88.66 47.83,-87.5 39.67,-86.34 32.67,-88.66 24.5,-88.67 15.16,-86.33 8.17,-88.67 v -86.33 l -8.17,-88.67 -15.16,-86.33 -24.5,-85.17 -32.67,-88.67 -39.67,-86.33 -47.83,-86.33 -54.83,-86.34 -65.34,-88.66 -71.16,-86.34 -80.5,-86.33 -88.67,-86.33 -94.5,-86.34 -105,-86.33 -112,-86.33 -120.17,-84 -128.33,-86.34 -134.17,-86.33 -145.83,-86.33 -150.5,-84 -161,-86.33 -168,-84 -175,-86.34 -184.33,-85.16" /></g></g><g
       id="g264"
       transform="matrix(0.1,0,0,0.1,177.25541,-137.75181)"
       inkscape:export-xdpi="300"
       inkscape:export-ydpi="300"><g
         clip-path="url(#clipPath270)"
         id="g266"><path
           inkscape:connector-curvature="0"
           id="path272"
           style="fill:none;stroke:#000000;stroke-width:21.01169968;stroke-linecap:round;stroke-linejoin:round;stroke-miterlimit:10;stroke-dasharray:none;stroke-opacity:1"
           d="m 1757,5213.33 162.17,-52.5 152.83,-52.5 145.83,-52.5 138.83,-52.5 128.34,-52.5 121.33,-53.67 114.33,-52.5 107.34,-52.5 99.16,-52.5 89.84,-52.5 82.83,-52.5 75.83,-52.5 64.17,-52.5 59.5,-52.5 52.5,-53.66 42,-52.5 36.17,-52.5 26.83,-52.5 18.67,-52.5 12.83,-52.5 4.67,-52.5 -4.67,-52.5 -12.83,-52.5 -18.67,-53.67 -26.83,-52.5 -36.17,-52.5 -42,-52.5 -52.5,-52.5 -59.5,-52.5 -64.17,-52.5 -75.83,-52.5 -82.83,-52.5 -89.84,-53.67 -99.16,-52.5 -107.34,-52.5 -114.33,-52.5 -121.33,-52.5 -128.34,-52.5 -138.83,-52.5 -145.83,-52.5 -152.83,-52.5 L 1757,3002.5" /></g></g><g
       id="g274"
       transform="matrix(0.1,0,0,0.1,177.25541,-137.75181)"
       inkscape:export-xdpi="300"
       inkscape:export-ydpi="300"><g
         clip-path="url(#clipPath280)"
         id="g276"><path
           inkscape:connector-curvature="0"
           id="path282"
           style="fill:#ffffff;fill-opacity:1;fill-rule:evenodd;stroke:none"
           d="m 3686.66,4051.33 h 238 v 114.332 h -238 z" /><g
           transform="scale(10)"
           id="g284"><text
             id="text288"
             style="font-style:italic;font-variant:normal;font-size:17.50088882px;font-family:Times;-inkscape-font-specification:Times-Italic;writing-mode:lr-tb;fill:#000000;fill-opacity:1;fill-rule:nonzero;stroke:none"
             transform="matrix(0,1,0.9981036,0,386.4,406.883)"><tspan
               id="tspan286"
               y="0"
               x="0">c</tspan></text>
</g></g></g></g></svg>